<?xml version="1.0" standalone="no"?>
<!DOCTYPE svg PUBLIC "-//W3C//DTD SVG 20010904//EN"
 "http://www.w3.org/TR/2001/REC-SVG-20010904/DTD/svg10.dtd">
<svg version="1.0" xmlns="http://www.w3.org/2000/svg"
 width="2148.000000pt" height="841.000000pt" viewBox="0 0 2148.000000 841.000000"
 preserveAspectRatio="xMidYMid meet">

<g transform="translate(0.000000,841.000000) scale(0.100000,-0.100000)"
fill="#000000" stroke="none">
<path d="M12420 8220 c0 -5 5 -10 11 -10 5 0 7 5 4 10 -3 6 -8 10 -11 10 -2 0
-4 -4 -4 -10z"/>
<path d="M12460 8220 c-14 -9 59 -15 138 -12 12 1 20 -3 17 -8 -4 -6 1 -10 9
-10 8 0 18 5 21 10 9 15 25 12 25 -4 0 -10 7 -13 23 -10 12 2 92 7 177 10 85
3 171 7 190 9 19 1 94 4 165 5 99 2 120 4 90 11 -57 11 -837 11 -855 -1z"/>
<path d="M12716 8143 c-1 -1 -71 -3 -156 -3 -85 -1 -177 -6 -205 -10 -49 -9
-420 -19 -725 -20 -97 0 -151 -3 -144 -10 5 -5 64 -10 132 -11 67 0 122 -5
122 -9 0 -5 -8 -9 -17 -8 -10 0 -45 -2 -78 -6 -138 -14 -163 -17 -215 -20 -30
-3 -154 -8 -275 -12 -258 -9 -232 -7 -241 -16 -4 -5 24 -9 62 -9 137 -2 162
-4 170 -11 4 -5 1 -9 -7 -9 -35 -3 -75 -9 -122 -18 -29 -5 -162 -13 -297 -17
-134 -3 -254 -10 -265 -14 -16 -7 -14 -9 15 -10 19 -1 42 -3 50 -4 8 -2 33 -3
55 -4 35 -2 38 -4 24 -17 -9 -10 -52 -19 -124 -26 -61 -6 -119 -12 -130 -14
-11 -2 -26 -4 -32 -4 -7 -1 -13 -7 -13 -15 0 -9 -7 -12 -20 -9 -11 3 -17 9
-14 14 3 5 -5 9 -18 9 -17 0 -19 -3 -9 -9 11 -7 11 -9 0 -13 -18 -7 57 -28 99
-28 17 0 32 -4 32 -10 0 -5 -20 -10 -44 -10 -25 0 -57 -5 -72 -10 -15 -6 -113
-15 -218 -21 -105 -6 -195 -15 -200 -20 -10 -9 12 -10 167 -13 58 -1 76 -11
35 -21 -59 -12 -322 -35 -422 -36 -61 0 -120 -4 -131 -9 -13 -6 16 -9 82 -9
56 -1 105 -5 108 -11 3 -5 0 -10 -7 -11 -7 0 -35 -4 -63 -9 -27 -6 -102 -15
-165 -21 -184 -17 -256 -26 -235 -28 11 -1 40 -4 65 -7 151 -15 107 -34 -145
-60 -48 -5 -55 -8 -38 -15 15 -5 21 -14 17 -24 -4 -10 0 -15 12 -15 16 0 16
-2 4 -14 -13 -12 -117 -29 -315 -53 l-60 -7 45 -7 c25 -4 65 -8 90 -9 l45 -2
-35 -9 c-19 -5 -44 -14 -55 -19 -11 -5 -83 -12 -160 -15 -161 -8 -199 -19
-101 -29 36 -4 66 -11 66 -15 0 -14 -140 -44 -235 -51 -49 -4 -79 -8 -65 -9
37 -2 70 -12 70 -21 0 -5 -26 -14 -57 -20 -76 -15 -140 -44 -140 -64 0 -8 3
-13 7 -11 3 2 12 0 20 -6 12 -7 11 -9 -5 -9 -15 0 -17 -3 -7 -9 20 -12 -5 -20
-89 -27 -38 -4 -72 -11 -75 -15 -3 -5 -29 -10 -57 -10 l-52 -2 45 -7 c25 -4
53 -4 62 1 22 12 38 11 38 -1 0 -5 -9 -10 -21 -10 -13 0 -18 -4 -13 -12 4 -7
4 -10 0 -7 -4 4 -31 1 -59 -7 -29 -8 -72 -14 -97 -14 -25 -1 -74 -7 -110 -15
l-65 -13 93 1 c50 1 91 -2 89 -7 -7 -22 -205 -65 -308 -67 -56 -1 -59 -2 -27
-9 21 -4 60 -6 88 -5 36 1 50 -2 50 -12 0 -12 -13 -17 -33 -14 -4 1 -20 -5
-36 -13 -15 -8 -50 -18 -76 -21 -45 -5 -75 -15 -46 -15 9 0 9 -5 1 -20 -9 -17
-8 -20 10 -20 29 0 20 -25 -9 -26 -13 -1 -26 -5 -30 -10 -9 -13 -23 -15 -171
-28 l-135 -11 145 -10 145 -11 -53 -12 c-29 -7 -95 -17 -145 -23 -100 -11
-171 -25 -147 -29 8 -2 20 -4 25 -5 6 -2 16 -3 23 -4 18 -2 15 -19 -7 -31 -11
-5 -55 -15 -98 -21 -43 -6 -82 -15 -87 -20 -9 -8 0 -10 72 -9 31 1 42 -3 42
-15 0 -11 -11 -15 -42 -16 -24 -1 -48 -1 -54 0 -7 1 -14 -5 -18 -14 -3 -8 -17
-15 -31 -15 -15 0 -24 -4 -20 -9 3 -5 -4 -12 -15 -16 -11 -3 -20 -11 -20 -17
0 -5 7 -7 16 -4 20 8 14 -15 -7 -24 -8 -4 -29 -14 -48 -24 -19 -9 -63 -20 -98
-23 -77 -7 -82 -21 -10 -25 l52 -3 -27 -18 c-14 -10 -44 -21 -65 -23 -21 -3
-65 -9 -98 -13 l-60 -7 53 -8 c76 -12 70 -24 -29 -55 -19 -6 -52 -11 -72 -11
-20 0 -39 -4 -42 -10 -4 -6 10 -10 34 -10 23 0 41 -3 41 -7 0 -12 -18 -38 -27
-39 -42 -4 -105 -18 -95 -21 6 -3 12 -9 12 -14 0 -6 -4 -8 -9 -5 -5 3 -14 -1
-21 -9 -11 -13 -7 -15 26 -16 35 0 36 -1 16 -10 -13 -5 -28 -7 -33 -3 -5 3 -9
-1 -9 -8 0 -17 -66 -37 -146 -45 -35 -3 -61 -10 -58 -15 4 -5 24 -8 47 -6 26
2 42 -1 44 -9 3 -7 -3 -13 -12 -13 -10 0 -38 -7 -64 -15 -25 -8 -68 -18 -96
-21 -49 -6 -49 -6 -23 -17 46 -20 -10 -67 -79 -67 -23 0 -44 -4 -47 -9 -9 -15
5 -20 24 -9 24 16 50 3 45 -22 -6 -32 -16 -42 -36 -37 -11 3 -19 0 -20 -6 0
-7 -2 -22 -5 -35 -3 -16 0 -21 8 -16 7 5 9 0 6 -14 -3 -11 -1 -23 6 -25 17 -7
2167 -3 2190 4 18 5 46 35 46 49 0 4 -10 12 -22 18 -22 10 -22 11 -2 11 11 1
24 4 28 9 4 4 64 14 134 23 93 12 113 17 75 18 -44 1 -53 4 -53 19 0 26 20 42
51 42 15 0 42 7 60 14 l34 15 -32 7 c-18 3 -33 13 -33 20 0 15 19 21 95 28 85
9 105 13 112 19 3 4 -12 7 -35 7 -22 0 -44 5 -47 10 -3 6 -16 10 -28 10 -22 1
-22 1 -3 15 11 8 39 15 62 15 57 0 73 7 67 31 -4 13 0 19 11 19 13 0 15 4 6
20 -8 16 -6 21 11 31 12 6 38 13 58 14 113 10 170 19 165 26 -3 5 -27 9 -54 9
-92 0 -59 31 50 46 25 3 52 8 60 11 8 3 21 7 28 9 27 5 22 11 -9 12 -45 1 -70
41 -26 43 12 0 31 2 42 4 11 2 49 6 85 10 75 7 104 19 72 29 -11 4 -25 5 -32
4 -7 -2 -14 2 -16 7 -5 12 64 35 102 35 15 0 44 8 65 17 l38 16 -20 29 c-17
23 -18 28 -5 28 9 0 16 6 16 14 0 15 50 26 124 26 58 0 53 11 -12 25 -47 11
-47 11 -22 25 14 7 64 16 113 18 48 2 87 8 87 13 0 5 8 8 18 7 9 -1 26 0 36 0
19 2 19 3 -3 23 l-22 21 20 19 c13 12 37 19 65 21 41 1 45 3 40 22 -6 26 30
42 124 52 59 6 77 16 50 27 -10 4 -9 8 2 17 12 9 11 10 -9 8 -15 -2 -26 3 -29
12 -3 8 -1 12 3 8 4 -4 17 -2 29 4 37 20 138 37 218 38 42 0 80 5 83 10 4 6
-22 10 -70 10 -42 0 -74 4 -71 9 9 14 101 41 140 41 20 0 36 5 36 10 0 6 21
10 48 10 l47 1 -35 16 c-19 8 -41 16 -47 16 -7 0 -13 4 -13 9 0 4 17 8 39 8
21 0 51 4 67 9 26 9 125 18 224 21 29 1 25 4 -25 15 -33 7 -65 10 -71 8 -7 -2
-15 1 -19 7 -14 23 99 49 224 50 35 0 41 3 32 13 -6 8 -7 18 -3 23 4 4 -1 2
-11 -5 -14 -11 -21 -11 -29 -3 -9 9 -8 12 5 12 20 0 23 16 5 22 -19 7 29 30
82 41 25 5 108 12 185 15 l140 7 -100 9 c-55 5 -104 8 -109 7 -6 -1 -21 1 -35
5 l-26 7 30 8 c17 5 46 12 65 14 19 3 49 7 65 10 17 3 73 5 125 5 125 1 189 9
166 22 -9 5 -25 6 -36 3 -12 -4 -20 -2 -20 5 0 7 -6 8 -19 0 -13 -6 -22 -7
-26 0 -3 5 12 12 35 16 22 4 40 10 40 14 0 19 61 30 165 30 63 0 115 3 115 8
0 4 -19 8 -43 10 -23 1 -52 8 -65 14 -22 12 -22 12 20 25 24 7 105 16 181 19
75 4 137 10 137 14 0 4 -6 7 -12 8 -35 4 -107 10 -137 11 -19 1 -32 3 -30 5 4
4 72 15 97 16 7 0 10 5 7 10 -4 6 -10 8 -15 5 -4 -3 -11 2 -14 11 -8 22 -9 22
17 22 12 0 63 5 112 11 50 6 119 11 155 12 l65 2 -50 6 -50 6 50 22 c43 18 83
23 285 33 129 6 236 13 238 14 1 2 -24 6 -57 10 -69 8 -82 19 -48 41 20 13 74
17 311 22 157 3 285 7 283 9 -1 2 -42 5 -90 8 -103 7 -166 16 -172 25 -11 18
311 33 739 33 251 0 456 3 456 6 0 4 -48 6 -108 5 -59 -1 -114 1 -122 4 -8 3
-29 5 -46 4 -18 -1 -35 3 -40 10 -5 8 -3 10 6 4 9 -6 11 -4 5 5 -6 10 -11 9
-22 -5 -7 -11 -13 -13 -13 -7 0 7 -4 11 -9 9 -5 -1 -10 2 -10 7 -1 6 4 11 11
12 43 6 55 6 72 -1 11 -5 26 -3 37 3 10 7 26 9 36 6 10 -3 7 2 -7 11 l-25 16
25 -7 c14 -3 31 -11 38 -16 8 -7 12 -7 12 1 0 6 4 11 10 11 5 0 7 -8 3 -17 -5
-17 -5 -17 8 -1 13 17 58 25 89 17 10 -3 14 3 14 14 -2 17 -1 17 17 1 13 -12
19 -13 19 -4 0 9 9 11 31 6 17 -3 40 -1 51 5 11 6 18 7 15 1 -4 -5 33 -8 95
-7 55 1 113 -1 127 -5 14 -5 19 -9 11 -9 -10 -1 -8 -5 7 -16 12 -8 28 -12 37
-9 9 3 16 1 16 -5 0 -6 -7 -11 -15 -11 -12 0 -13 -4 -3 -19 10 -16 26 -19 147
-20 145 -1 293 -8 378 -17 43 -4 50 -8 40 -19 -6 -7 -15 -11 -19 -8 -5 2 -8
-1 -8 -6 0 -6 -3 -10 -7 -10 -5 1 -15 0 -23 -1 -14 -2 88 -23 177 -36 38 -6
41 -9 32 -26 -5 -10 -14 -16 -19 -13 -4 3 -19 1 -32 -4 -18 -8 -10 -10 40 -10
35 -1 72 -6 83 -12 11 -5 38 -11 59 -12 22 -1 40 -5 40 -10 0 -5 7 -6 16 -3 9
4 24 1 32 -6 10 -8 13 -9 9 -1 -5 7 0 9 13 6 19 -5 19 -6 3 -18 -10 -7 -22
-11 -28 -8 -6 4 -6 2 -2 -3 5 -5 12 -9 15 -10 4 0 14 -4 22 -7 8 -4 35 -9 60
-12 110 -12 120 -16 102 -38 -7 -8 -9 -17 -5 -20 3 -4 1 -7 -5 -7 -7 0 -11 -6
-10 -12 2 -8 -6 -12 -19 -10 -12 2 -24 -2 -28 -8 -4 -6 13 -10 47 -11 78 -2
79 -2 95 -27 15 -21 14 -22 -18 -29 l-34 -7 30 -8 c17 -5 39 -10 50 -11 14 -1
21 -11 23 -29 3 -26 20 -36 36 -21 11 11 46 14 46 3 0 -9 -14 -14 -32 -11 -5
0 -8 -3 -8 -8 0 -10 56 -25 83 -22 21 3 34 -26 20 -48 -7 -12 -4 -21 9 -33 21
-20 31 -10 32 35 1 17 6 32 13 34 8 3 10 -6 6 -31 -4 -25 -1 -40 11 -51 19
-19 21 -66 4 -83 -9 -9 -8 -12 5 -13 9 -1 20 -2 25 -4 4 -1 20 -5 36 -10 16
-4 38 -8 50 -9 28 -1 27 -30 -1 -34 -16 -2 -23 2 -23 12 0 25 -17 19 -22 -8
-6 -28 10 -60 19 -38 7 17 38 15 57 -4 11 -10 14 -24 10 -41 -5 -18 -3 -24 5
-19 6 4 11 1 11 -6 0 -20 51 -122 65 -130 13 -8 27 -194 26 -338 0 -44 3 -80
8 -80 5 0 8 15 8 33 0 56 11 208 16 213 14 14 28 -36 33 -117 3 -52 10 -116
15 -143 17 -88 9 -395 -16 -656 -3 -30 -2 -61 3 -67 6 -10 138 -13 571 -13
310 -1 565 1 568 3 2 3 0 53 -4 113 -4 60 -9 101 -11 92 -5 -25 -21 -22 -27 5
-4 21 -13 94 -14 129 -1 12 -6 15 -17 11 -11 -4 -12 -9 -5 -16 14 -14 14 -30
1 -22 -5 3 -10 1 -10 -4 0 -6 -4 -11 -10 -11 -5 0 -10 11 -10 24 0 12 -5 36
-10 52 -6 16 -13 63 -18 104 -7 73 -8 75 -32 72 -14 -2 -22 -1 -18 3 4 4 1 20
-8 36 -16 32 -16 33 20 19 21 -7 26 -6 26 5 0 8 -6 12 -12 10 -7 -2 -29 0 -48
4 -23 6 -28 9 -13 10 14 1 21 7 21 19 0 9 0 22 2 27 4 19 -12 55 -26 55 -8 0
-14 7 -14 15 0 8 7 15 15 15 8 0 15 4 15 9 0 5 -8 8 -17 7 -12 -1 -20 11 -26
37 -8 32 -12 37 -29 31 -13 -4 -24 -1 -29 7 -14 23 -11 27 21 25 16 0 28 4 27
9 -1 6 -11 9 -22 8 -11 -2 -38 4 -60 11 -36 13 -40 18 -39 45 1 17 -2 31 -7
31 -5 0 -9 10 -9 23 -1 20 -2 21 -14 5 -7 -10 -23 -18 -34 -18 -25 0 -33 30
-12 47 10 8 11 12 3 13 -7 0 -13 12 -13 26 0 14 -4 23 -9 20 -16 -10 -41 5
-41 24 0 10 -6 21 -12 24 -9 3 -7 10 7 22 20 16 20 16 -2 11 -13 -3 -23 0 -23
6 0 6 -3 8 -6 4 -3 -3 -14 3 -25 14 -11 11 -24 17 -29 14 -6 -4 -10 1 -10 9 0
9 12 16 33 18 24 2 12 7 -48 19 -56 10 -81 20 -83 31 -2 10 7 18 23 22 14 4
23 11 20 16 -9 15 -27 12 -20 -2 4 -7 -2 -2 -14 12 -14 17 -30 25 -53 25 -29
0 -33 3 -32 25 1 28 -11 40 -43 40 -13 0 -23 4 -23 9 0 5 -16 9 -36 8 -24 -1
-39 5 -45 16 -6 9 -18 17 -27 17 -15 0 -15 2 -2 10 13 8 11 11 -7 16 -13 4
-20 11 -16 20 3 9 -2 14 -15 14 -12 0 -24 5 -27 10 -3 6 -2 10 3 10 6 0 15 13
20 29 9 25 8 29 -6 27 -10 -2 -17 -8 -17 -14 0 -6 -4 -14 -9 -19 -5 -4 -7 -3
-3 3 6 11 -54 74 -70 74 -5 0 -16 11 -23 25 -7 14 -22 25 -32 25 -10 0 -48 9
-84 21 -48 16 -64 25 -62 37 2 11 -3 16 -14 14 -10 -2 -18 1 -18 6 0 10 -37
25 -53 23 -15 -2 -38 27 -27 34 6 4 8 11 4 16 -3 5 -10 7 -15 4 -5 -4 -9 -4
-9 0 0 3 10 9 22 14 17 6 -2 12 -78 25 -118 21 -124 22 -124 36 0 5 6 11 13
12 6 0 17 2 22 3 6 2 17 3 24 4 39 3 -14 20 -109 36 -58 9 -107 18 -109 20
-12 12 17 25 57 26 78 1 97 17 22 18 -61 1 -277 27 -310 37 -26 9 7 21 63 23
29 1 70 6 92 11 l40 8 -40 1 c-88 2 -292 23 -317 33 -28 10 -39 38 -15 38 6 0
23 9 36 19 l23 18 -68 6 c-38 4 -103 11 -144 16 -41 5 -110 11 -153 12 -111 5
-92 23 30 29 95 5 134 14 102 24 -19 6 -159 16 -319 22 -165 6 -220 12 -220
25 0 8 67 14 110 10 10 -1 8 5 -7 18 -24 20 -44 21 -433 36 -169 6 -331 17
-326 22 9 9 47 12 211 13 251 1 181 17 -110 24 -137 4 -311 9 -385 11 -332 12
-700 21 -704 18z m-936 -63 c0 -5 -5 -10 -11 -10 -5 0 -7 5 -4 10 3 6 8 10 11
10 2 0 4 -4 4 -10z m-605 -80 c3 -5 1 -10 -4 -10 -6 0 -11 5 -11 10 0 6 2 10
4 10 3 0 8 -4 11 -10z m2379 -191 c-5 -9 -44 1 -44 10 0 4 3 10 6 14 8 8 44
-15 38 -24z m-59 11 c3 -5 1 -10 -4 -10 -6 0 -11 5 -11 10 0 6 2 10 4 10 3 0
8 -4 11 -10z m1585 -164 c0 -3 -4 -8 -10 -11 -5 -3 -10 -1 -10 4 0 6 5 11 10
11 6 0 10 -2 10 -4z m-4390 -566 c0 -5 -5 -10 -11 -10 -5 0 -7 5 -4 10 3 6 8
10 11 10 2 0 4 -4 4 -10z m6077 -406 c-3 -3 -12 -4 -19 -1 -8 3 -5 6 6 6 11 1
17 -2 13 -5z m-6995 -46 c-7 -7 -12 -8 -12 -2 0 14 12 26 19 19 2 -3 -1 -11
-7 -17z m-438 -279 c-3 -5 -10 -7 -15 -3 -5 3 -7 10 -3 15 3 5 10 7 15 3 5 -3
7 -10 3 -15z m-3004 -423 c0 -11 -19 -15 -25 -6 -3 5 1 10 9 10 9 0 16 -2 16
-4z"/>
<path d="M14098 8093 c7 -3 16 -2 19 1 4 3 -2 6 -13 5 -11 0 -14 -3 -6 -6z"/>
<path d="M14287 7784 c2 -7 11 -10 19 -7 19 7 18 10 -5 16 -13 3 -18 1 -14 -9z"/>
<path d="M15878 7493 c6 -2 18 -2 25 0 6 3 1 5 -13 5 -14 0 -19 -2 -12 -5z"/>
<path d="M15980 7380 c20 -13 33 -13 25 0 -3 6 -14 10 -23 10 -15 0 -15 -2 -2
-10z"/>
<path d="M16168 7293 c7 -3 16 -2 19 1 4 3 -2 6 -13 5 -11 0 -14 -3 -6 -6z"/>
<path d="M15578 7263 c7 -3 16 -2 19 1 4 3 -2 6 -13 5 -11 0 -14 -3 -6 -6z"/>
<path d="M16305 7220 c-4 -6 14 -10 46 -10 61 0 61 5 2 14 -24 3 -44 2 -48 -4z"/>
<path d="M16260 7175 c0 -9 6 -12 15 -9 8 4 15 10 15 15 0 5 -7 9 -15 9 -8 0
-15 -7 -15 -15z"/>
<path d="M16290 7140 c0 -5 5 -10 10 -10 6 0 10 5 10 10 0 6 -4 10 -10 10 -5
0 -10 -4 -10 -10z"/>
<path d="M16320 7113 c0 -13 5 -23 10 -23 13 0 13 11 0 30 -8 12 -10 11 -10
-7z"/>
<path d="M16376 7095 c-9 -23 -8 -25 9 -25 17 0 19 9 6 28 -7 11 -10 10 -15
-3z"/>
<path d="M16510 7022 c0 -14 11 -21 26 -15 8 3 11 9 8 14 -7 11 -34 12 -34 1z"/>
<path d="M16720 6861 c0 -5 5 -13 10 -16 6 -3 10 -2 10 4 0 5 -4 13 -10 16 -5
3 -10 2 -10 -4z"/>
<path d="M16850 6661 c0 -6 5 -13 10 -16 6 -3 10 1 10 9 0 9 -4 16 -10 16 -5
0 -10 -4 -10 -9z"/>
<path d="M16905 6580 c3 -5 10 -10 16 -10 5 0 9 5 9 10 0 6 -7 10 -16 10 -8 0
-12 -4 -9 -10z"/>
<path d="M6868 6413 c6 -2 18 -2 25 0 6 3 1 5 -13 5 -14 0 -19 -2 -12 -5z"/>
<path d="M9233 6263 c10 -9 57 -10 57 -1 0 4 -14 8 -32 8 -17 0 -28 -3 -25 -7z"/>
<path d="M9105 6180 c-3 -5 3 -10 14 -10 12 0 21 5 21 10 0 6 -6 10 -14 10 -8
0 -18 -4 -21 -10z"/>
<path d="M17189 6133 c-2 -10 -1 -43 2 -73 l6 -55 1 73 c2 70 -2 91 -9 55z"/>
<path d="M16077 5873 c-10 -9 -9 -23 1 -23 5 0 9 7 9 15 0 17 -1 18 -10 8z"/>
<path d="M16062 5708 c2 -60 7 -103 13 -103 14 0 19 45 6 58 -6 6 -11 16 -11
22 0 5 5 3 11 -5 8 -11 9 -3 3 30 -4 25 -7 57 -6 73 1 15 -3 27 -9 27 -6 0 -9
-39 -7 -102z"/>
<path d="M7407 5539 c7 -7 15 -10 18 -7 3 3 -2 9 -12 12 -14 6 -15 5 -6 -5z"/>
<path d="M16294 5543 c7 -8 297 -6 304 2 3 3 -66 5 -153 5 -87 0 -155 -3 -151
-7z"/>
<path d="M16628 5543 c12 -2 30 -2 40 0 9 3 -1 5 -23 4 -22 0 -30 -2 -17 -4z"/>
<path d="M16697 5538 c2 -5 102 -8 221 -7 119 0 213 2 207 4 -20 8 -433 10
-428 3z"/>
<path d="M7198 5533 c12 -2 32 -2 45 0 12 2 2 4 -23 4 -25 0 -35 -2 -22 -4z"/>
<path d="M7298 5533 c6 -2 18 -2 25 0 6 3 1 5 -13 5 -14 0 -19 -2 -12 -5z"/>
<path d="M17198 5523 c7 -3 16 -2 19 1 4 3 -2 6 -13 5 -11 0 -14 -3 -6 -6z"/>
<path d="M300 4703 c0 -113 -8 -163 -25 -157 -7 3 -16 21 -19 39 -4 19 -11 37
-15 39 -10 7 -19 -104 -27 -359 -4 -104 -9 -194 -11 -198 -3 -4 -11 -3 -18 3
-19 16 -25 -40 -25 -257 l0 -193 64 0 63 0 6 122 c5 110 8 124 26 137 16 10
21 24 21 55 0 23 5 47 12 54 7 7 42 12 87 12 94 0 87 10 -10 14 -60 3 -75 7
-77 21 -2 9 0 21 5 26 4 4 94 9 199 10 105 0 197 5 204 9 21 13 0 31 -33 28
-23 -2 -32 1 -32 12 0 9 11 16 30 18 17 2 37 6 45 9 8 3 23 5 33 4 14 -2 17 6
18 46 1 54 25 236 29 213 1 -8 3 -24 6 -35 13 -68 22 -154 17 -177 -3 -16 -1
-28 5 -28 10 0 23 220 24 408 1 71 -3 107 -12 115 -10 10 -11 5 -7 -25 5 -33
3 -38 -14 -38 -31 0 -34 3 -34 34 0 28 -10 38 -47 50 -22 7 -24 36 -3 36 24 0
18 27 -7 34 -13 3 -125 6 -250 6 l-228 0 0 -87z m388 -230 l-3 -148 -30 -6
c-28 -6 -24 -9 15 -13 24 -2 17 -30 -10 -37 -14 -4 -71 -7 -128 -8 -85 -1
-104 2 -109 15 -3 8 -1 20 5 26 7 7 7 18 1 32 -6 12 -6 55 -2 106 8 81 9 85
33 85 21 0 26 5 28 35 3 24 -2 38 -14 47 -15 11 1 13 99 13 l118 0 -3 -147z
m-241 85 c-3 -8 -6 -5 -6 6 -1 11 2 17 5 13 3 -3 4 -12 1 -19z"/>
<path d="M1057 4783 c-4 -3 -7 -41 -7 -84 l0 -78 73 -3 c69 -3 72 -4 69 -27
-2 -13 -1 -34 3 -48 5 -21 8 -23 21 -12 8 6 18 9 22 5 8 -9 8 -213 -1 -271 -3
-22 -6 -53 -6 -70 -2 -47 -20 -9 -22 45 -4 83 -17 -192 -20 -405 l-3 -210 51
-3 50 -3 6 168 c5 157 21 273 38 273 4 0 6 -6 6 -12 -3 -33 16 -289 21 -284 3
4 9 138 14 299 5 160 15 328 22 372 l14 80 2 -75 3 -75 6 75 c3 41 10 81 14
88 5 6 24 12 43 12 35 0 40 5 25 29 -6 8 -14 10 -22 5 -25 -16 -37 -12 -42 12
-2 13 -2 26 1 29 3 3 47 5 98 5 51 0 104 4 117 9 23 9 25 14 22 76 -2 37 -6
69 -10 73 -9 9 -599 14 -608 5z m170 -205 c-3 -7 -5 -2 -5 12 0 14 2 19 5 13
2 -7 2 -19 0 -25z"/>
<path d="M2606 4782 c-14 -3 -17 -10 -13 -30 3 -15 0 -38 -8 -51 l-12 -24 -12
21 c-7 12 -10 34 -9 48 2 15 -2 29 -8 31 -7 2 -13 -37 -18 -121 -3 -69 -10
-135 -15 -148 -8 -22 -9 -21 -18 12 l-10 35 -7 -55 c-4 -30 -9 -74 -10 -97 -2
-51 -22 -79 -43 -61 -9 7 -13 22 -10 37 6 29 -2 53 -14 45 -5 -3 -9 -42 -9
-88 0 -45 -3 -86 -7 -90 -5 -4 -8 -25 -8 -47 0 -21 -4 -38 -10 -36 -5 1 -10
18 -10 37 0 19 -4 37 -10 39 -6 2 -11 -24 -12 -64 -1 -78 -12 -155 -20 -155
-3 0 -12 8 -19 18 -12 15 -14 12 -15 -28 -1 -25 -1 -56 0 -70 3 -38 -19 -60
-48 -49 -19 8 -22 15 -19 40 3 16 1 32 -3 34 -12 8 -31 -316 -19 -334 4 -8 28
-11 66 -9 58 3 59 4 60 33 3 69 2 68 30 61 25 -7 26 -5 21 21 -8 40 9 65 41
62 42 -5 50 6 44 56 l-5 46 109 -3 109 -3 0 -45 c0 -45 0 -45 38 -48 30 -3 37
0 37 14 0 10 3 15 6 11 3 -3 7 -49 8 -101 1 -53 5 -99 9 -103 4 -3 7 12 7 35
0 22 5 44 10 47 6 4 10 -7 10 -27 0 -50 9 -55 78 -54 l64 1 -7 130 c-7 143
-12 185 -25 185 -4 0 -11 -32 -15 -72 -6 -58 -9 -68 -18 -52 -7 11 -14 134
-18 312 -4 161 -10 296 -13 299 -3 4 -6 -8 -6 -25 0 -35 -9 -62 -20 -62 -10 0
-20 130 -22 303 l-2 137 -26 2 c-50 4 -135 4 -154 0z m164 -52 c0 -5 -2 -10
-4 -10 -3 0 -8 5 -11 10 -3 6 -1 10 4 10 6 0 11 -4 11 -10z m-130 -334 c0 -19
6 -39 14 -45 16 -13 17 -51 9 -198 l-5 -93 -68 0 c-38 0 -71 4 -74 9 -3 5 -3
52 1 105 l6 96 38 0 c38 0 58 13 39 25 -15 9 -12 34 5 51 8 9 15 33 15 55 0
24 4 38 10 34 6 -3 10 -21 10 -39z m-85 -86 c3 -5 -1 -10 -9 -10 -9 0 -16 5
-16 10 0 6 4 10 9 10 6 0 13 -4 16 -10z m162 -106 c1 -18 -2 -23 -9 -16 -6 6
-8 18 -5 26 9 22 12 20 14 -10z m-297 -349 c-15 -28 -22 -26 -27 7 -4 24 17
42 31 28 6 -6 5 -19 -4 -35z m330 19 c0 -13 -3 -14 -15 -4 -8 7 -22 10 -30 6
-9 -3 -13 -2 -10 4 10 17 55 12 55 -6z m-400 -114 c0 -4 -7 -10 -15 -14 -10
-4 -15 1 -15 14 0 13 5 18 15 14 8 -4 15 -10 15 -14z m517 -82 c-3 -7 -5 -2
-5 12 0 14 2 19 5 13 2 -7 2 -19 0 -25z"/>
<path d="M3254 4783 l-32 -4 -4 -182 c-2 -100 -8 -188 -12 -196 -13 -20 -36
14 -36 53 0 17 -4 37 -9 45 -15 23 -20 -29 -27 -279 -4 -129 -10 -244 -15
-255 -7 -18 -8 -17 -8 7 -1 15 -5 29 -10 32 -12 8 -21 -97 -21 -251 l0 -134
63 3 62 3 6 110 c11 186 9 177 23 130 l13 -40 6 79 c4 44 7 138 7 211 0 76 4
135 10 141 7 7 30 7 73 -1 50 -9 62 -15 64 -30 1 -11 5 -69 9 -130 4 -60 9
-103 11 -95 13 42 16 44 24 15 5 -16 11 -82 14 -145 9 -173 16 -240 26 -240 5
0 8 12 7 28 -4 66 2 113 17 119 24 9 30 -3 35 -80 l5 -72 88 -3 c85 -3 87 -2
87 20 3 202 14 386 26 402 12 17 13 16 19 -17 4 -20 10 -60 14 -89 l7 -53 7
70 c4 39 12 180 18 315 7 135 16 249 20 255 5 5 9 -12 9 -40 0 -31 3 -46 10
-39 5 5 10 83 10 174 l2 165 -39 0 c-37 0 -38 -1 -38 -35 0 -19 -4 -36 -10
-37 -5 -1 -10 14 -10 35 0 25 -4 37 -14 37 -11 0 -15 -27 -19 -135 -4 -126
-18 -255 -21 -188 -1 15 -5 30 -11 33 -6 4 -10 -36 -10 -112 0 -65 -4 -124 -9
-132 -6 -9 -19 -12 -40 -8 -56 11 -77 -9 -45 -45 14 -14 14 -20 4 -33 -7 -8
-23 -15 -35 -15 -24 0 -23 -5 -43 197 -8 79 -22 109 -22 47 0 -22 -6 -49 -14
-59 -13 -18 -14 -18 -24 2 -6 11 -14 52 -16 89 -7 91 -16 130 -27 112 -7 -10
-9 -10 -10 2 -1 8 -3 26 -5 40 -1 14 -5 48 -7 75 l-4 50 -46 3 c-33 2 -47 7
-47 18 0 17 21 27 61 28 44 2 36 26 -8 26 -21 0 -47 2 -58 4 -11 2 -34 1 -51
-1z m31 -53 c0 -23 -49 -20 -53 3 -3 15 2 18 25 15 17 -2 28 -9 28 -18z m560
11 c3 -5 1 -12 -5 -16 -5 -3 -10 1 -10 9 0 18 6 21 15 7z m-165 -551 c0 -20
-25 -38 -36 -27 -8 7 15 47 26 47 6 0 10 -9 10 -20z"/>
<path d="M4129 4783 l-46 -4 -6 -121 c-4 -67 -7 -145 -7 -175 0 -29 -4 -53
-10 -53 -5 0 -10 14 -10 31 0 16 -4 28 -8 25 -5 -3 -12 -81 -16 -173 -4 -92
-11 -190 -15 -218 -7 -48 -8 -49 -19 -24 -6 15 -14 60 -18 100 -13 119 -21 43
-23 -193 -1 -187 5 -239 23 -193 9 24 36 17 47 -12 5 -14 8 -32 5 -38 -6 -17
9 -38 29 -41 23 -3 27 -8 19 -28 -3 -9 -13 -15 -22 -14 -8 2 -17 -2 -19 -8 -7
-19 383 -34 466 -18 33 7 42 28 16 38 -8 3 -15 12 -15 21 0 9 7 18 15 20 48
15 48 15 35 30 -16 20 -3 55 21 55 18 0 20 -6 17 -37 -2 -29 1 -38 12 -38 9 0
16 11 17 30 2 17 7 89 12 160 5 72 10 132 11 135 2 3 8 -26 14 -65 11 -68 12
-61 25 198 11 209 17 267 27 267 14 0 21 -20 28 -84 3 -21 7 -40 9 -43 9 -8
19 140 20 307 l2 164 -65 1 c-59 0 -65 -2 -63 -20 3 -27 -16 -214 -24 -245 -5
-20 -9 -13 -15 35 -5 33 -10 79 -12 102 -3 42 -11 62 -21 51 -3 -3 -10 -147
-15 -319 -5 -173 -13 -330 -18 -349 l-9 -35 -11 35 -10 35 -3 -50 c-2 -27 -4
-61 -5 -75 -1 -14 -3 -33 -3 -44 -1 -15 -6 -17 -29 -13 -41 8 -49 -2 -48 -58
1 -47 0 -50 -29 -56 -48 -11 -163 -10 -170 1 -3 6 -17 10 -30 10 -22 0 -25 5
-27 48 -4 86 1 506 7 570 8 80 25 71 27 -16 0 -37 6 32 12 153 11 214 9 247
-18 243 -6 -1 -32 -3 -57 -5z m11 -53 c0 -5 -7 -10 -15 -10 -8 0 -15 5 -15 10
0 6 7 10 15 10 8 0 15 -4 15 -10z"/>
<path d="M5140 4783 c-60 -7 -65 -11 -45 -33 15 -16 16 -22 5 -36 -8 -9 -22
-13 -33 -10 -33 8 -59 -12 -55 -42 2 -20 -2 -28 -17 -30 -11 -3 -23 -10 -27
-17 -5 -7 -17 -11 -28 -8 -18 5 -20 0 -21 -48 0 -73 -11 -124 -26 -125 -7 -1
-24 -2 -38 -2 l-25 -2 0 -319 c0 -293 5 -354 25 -321 17 27 67 -7 64 -44 -3
-38 1 -45 24 -48 18 -2 22 -9 20 -34 -2 -28 1 -32 28 -38 41 -8 359 -8 438 0
41 5 61 11 61 20 0 8 -11 14 -25 14 -29 0 -35 28 -7 36 9 3 27 10 38 16 12 6
31 7 42 4 18 -6 20 -1 26 66 3 40 9 153 12 251 4 97 11 177 15 177 5 0 9 9 9
19 0 15 -9 21 -37 25 -50 7 -319 -7 -315 -16 1 -5 2 -21 2 -38 0 -23 4 -29 18
-27 9 1 18 -2 20 -8 1 -5 -7 -11 -18 -11 -27 -2 -27 -3 -32 -44 -3 -33 -2 -35
37 -42 22 -4 57 -7 78 -7 24 -1 40 -6 44 -16 8 -22 -2 -29 -45 -30 -20 0 -37
-5 -37 -10 0 -6 14 -9 31 -7 42 4 58 -17 50 -70 -3 -24 -6 -64 -5 -90 l0 -48
-186 0 c-200 0 -198 0 -174 53 7 16 17 23 29 20 10 -3 21 0 24 6 5 7 -5 11
-27 11 -19 0 -40 6 -46 14 -15 18 -4 515 12 534 7 9 22 12 39 8 18 -4 28 -1
29 7 0 6 2 26 2 42 2 25 7 31 31 33 28 3 70 32 47 32 -6 0 -11 16 -11 35 l0
35 115 0 115 0 0 -49 c0 -47 13 -76 23 -49 8 27 38 -14 35 -48 -3 -41 9 -55
28 -30 11 16 14 17 14 4 0 -20 54 -31 95 -20 l30 9 -3 89 c-2 49 -5 91 -8 93
-2 2 -26 6 -54 9 -54 5 -66 27 -14 27 22 0 29 5 29 20 0 16 -7 20 -30 20 -30
0 -75 23 -75 38 0 4 4 6 9 2 11 -6 26 33 16 43 -7 8 -290 12 -345 5z m347
-305 c-3 -7 -5 -2 -5 12 0 14 2 19 5 13 2 -7 2 -19 0 -25z m-407 12 c0 -5 -9
-10 -20 -10 -11 0 -20 5 -20 10 0 6 9 10 20 10 11 0 20 -4 20 -10z m-90 -467
c0 -110 -8 -149 -23 -110 -6 17 -6 169 1 221 9 75 22 12 22 -111z"/>
<path d="M6063 4782 l-153 -3 0 -39 c0 -35 -3 -40 -24 -40 l-24 0 -3 -179 c-3
-99 -8 -183 -12 -187 -15 -16 -28 15 -36 90 -11 97 -21 109 -22 25 -2 -145
-25 -538 -31 -545 -5 -4 -8 10 -8 32 0 21 -5 46 -10 54 -7 11 -10 -4 -10 -50
0 -36 -3 -122 -7 -192 l-6 -128 304 0 c167 0 309 4 316 8 6 4 14 34 16 67 l3
60 3 -65 c3 -53 5 -59 11 -35 13 50 11 112 -3 124 -9 7 -86 12 -212 13 l-198
3 -1 44 c-1 64 -26 68 -27 4 -1 -91 -21 -7 -26 113 -6 114 1 139 32 114 9 -7
15 -8 20 0 4 6 77 10 205 10 122 0 201 4 205 10 4 7 -65 10 -200 10 -179 0
-206 2 -212 16 -3 9 0 20 8 25 8 5 105 9 217 9 154 0 202 3 203 13 4 33 -4
103 -12 111 -15 16 -10 36 8 36 11 0 14 3 7 10 -5 5 -98 11 -214 12 l-205 3
-3 80 c-2 85 6 112 32 102 13 -5 16 -21 16 -77 0 -47 4 -69 10 -65 6 4 10 34
9 68 0 37 5 76 14 97 11 25 12 40 5 53 -5 10 -7 21 -4 24 3 4 95 8 203 10 109
2 204 6 211 8 9 4 12 25 10 77 l-3 73 -125 0 c-69 0 -194 -1 -277 -3z m-133
-657 c0 -8 -4 -15 -10 -15 -5 0 -10 7 -10 15 0 8 5 15 10 15 6 0 10 -7 10 -15z"/>
<path d="M6674 4776 c-3 -9 -9 -75 -12 -147 -5 -89 -11 -134 -19 -136 -7 -3
-14 11 -18 34 -3 21 -12 70 -20 108 l-13 70 -1 -125 c-1 -162 -22 -631 -29
-650 -3 -9 -8 1 -12 23 -4 20 -9 40 -12 43 -9 8 -20 -209 -16 -301 l3 -80 63
-3 c44 -2 63 1 66 10 3 7 8 67 12 133 7 105 8 114 15 72 13 -81 19 -66 21 49
2 102 4 152 7 182 1 10 29 12 119 10 l117 -3 0 -35 c0 -28 4 -36 21 -38 20 -3
22 -11 28 -90 11 -156 18 -202 27 -196 5 3 9 15 10 27 1 44 18 -15 18 -65 l1
-48 63 0 c34 1 96 5 137 10 41 4 77 5 80 0 7 -11 99 -15 128 -6 19 6 22 13 18
31 -7 29 2 55 19 55 17 0 24 -21 18 -54 -4 -20 -2 -27 6 -25 8 3 14 32 17 74
6 89 8 95 38 95 31 0 36 16 19 58 l-13 32 32 1 c18 1 44 3 58 5 14 2 69 1 123
-3 l98 -6 -3 -45 c-3 -41 -1 -46 22 -52 27 -6 27 -9 29 -117 l1 -53 33 2 c17
1 47 -2 65 -6 l32 -8 -1 189 c-1 103 -5 222 -9 263 l-7 75 -1 -94 c-1 -54 -6
-91 -11 -85 -12 13 -31 360 -31 566 0 98 -4 179 -9 183 -15 9 -20 -7 -22 -68
-1 -31 -6 -62 -10 -68 -9 -16 -29 54 -29 104 l0 37 -45 1 c-25 1 -68 2 -96 3
-56 1 -75 -12 -66 -45 7 -28 -2 -49 -20 -49 -12 0 -14 8 -10 34 6 39 -15 70
-27 40 -3 -9 -4 -19 -2 -22 5 -9 -11 -190 -19 -225 -10 -39 -23 -33 -27 11 -3
26 -6 12 -12 -46 -5 -45 -12 -84 -16 -87 -4 -2 -5 -16 -2 -30 3 -19 0 -25 -13
-25 -13 0 -16 6 -13 24 3 14 2 30 -2 37 -5 6 -11 -28 -15 -77 -8 -116 -9 -118
-44 -111 l-29 6 -6 -77 c-4 -42 -13 -89 -21 -105 -8 -15 -12 -33 -10 -40 7
-19 -45 -51 -78 -49 -23 2 -28 -1 -23 -14 3 -8 6 -25 6 -37 1 -22 1 -22 16 -2
8 11 12 25 10 32 -7 18 18 11 26 -7 4 -8 7 -26 7 -39 1 -20 -3 -23 -30 -19
-35 5 -41 -3 -43 -65 l-1 -42 -70 3 c-75 3 -84 9 -85 57 0 17 -3 56 -6 89 -5
46 -10 59 -25 63 -17 5 -19 15 -19 99 0 89 1 94 21 94 12 0 19 5 17 13 -3 6
-11 12 -18 12 -7 0 -15 6 -17 13 -3 6 3 12 13 12 10 0 28 9 40 21 19 18 25 19
42 8 12 -7 23 -11 26 -8 3 3 8 61 12 129 7 133 22 205 23 113 1 -28 5 -54 10
-57 12 -8 21 121 14 204 -5 59 -9 70 -24 70 -14 0 -19 9 -21 43 -3 42 -3 42
-43 42 -34 0 -40 3 -43 23 -4 28 20 39 54 24 21 -10 24 -9 24 7 0 13 -8 19
-22 20 -13 1 -143 4 -291 7 -233 4 -268 3 -273 -10z m386 -196 c0 -38 -1 -40
-32 -41 l-33 -2 35 -6 35 -6 5 -75 c7 -98 19 -60 23 70 2 80 5 95 19 98 15 3
17 -10 17 -117 0 -66 1 -124 2 -128 6 -33 -2 -44 -33 -42 -18 0 -91 -2 -162
-5 -98 -4 -132 -3 -138 7 -9 14 -11 158 -2 181 4 11 13 14 30 10 23 -6 24 -4
24 45 l0 51 105 0 105 0 0 -40z m822 -206 c11 -56 5 -294 -7 -303 -5 -5 -39
-8 -75 -7 l-65 1 -1 125 c-2 152 0 160 34 160 67 -1 77 3 80 38 4 44 25 36 34
-14z m-814 -75 c85 -2 81 -23 -6 -29 -128 -9 -250 -6 -264 8 -23 23 12 32 113
27 53 -3 124 -5 157 -6z m157 -59 c3 -5 1 -10 -5 -10 -7 0 -10 -7 -7 -15 4 -8
2 -17 -3 -20 -6 -4 -10 7 -10 24 0 30 13 41 25 21z"/>
<path d="M7795 4290 c-3 -5 -1 -10 4 -10 6 0 11 5 11 10 0 6 -2 10 -4 10 -3 0
-8 -4 -11 -10z"/>
<path d="M7748 4779 c-12 -8 -1 -49 13 -49 5 0 9 5 9 11 0 7 11 8 30 4 44 -10
140 4 140 20 0 8 -9 17 -20 20 -24 8 -157 3 -172 -6z"/>
<path d="M8419 4787 c0 -1 -3 -56 -5 -122 -5 -132 -11 -163 -24 -130 -5 11
-10 34 -11 50 -4 58 -17 -78 -25 -257 -7 -164 -9 -178 -26 -178 -17 0 -18 11
-18 164 0 99 -4 167 -10 171 -6 4 -10 -22 -10 -72 0 -104 -20 -546 -27 -603
-5 -38 -7 -41 -12 -20 -11 40 -19 11 -22 -80 l-4 -85 58 -3 c33 -2 65 2 72 8
9 8 15 8 20 0 18 -28 23 8 29 213 6 171 10 225 21 236 22 23 30 6 36 -82 l6
-82 1 76 c2 82 13 102 49 93 11 -3 24 -1 27 5 7 11 -12 14 -94 15 -24 1 -35 6
-35 16 0 19 30 22 197 24 125 1 160 -7 144 -33 -7 -11 -12 -490 -5 -494 2 -2
31 -1 65 1 l60 4 12 112 c7 62 12 130 12 150 0 21 4 35 9 31 5 -3 12 5 14 17
2 13 5 -52 6 -144 0 -105 5 -168 11 -168 6 0 10 54 10 143 0 78 5 249 11 379
11 262 27 362 28 188 2 -168 20 -160 22 10 1 80 4 208 8 285 4 77 4 143 1 147
-3 3 -32 8 -65 9 l-60 3 -12 -165 c-6 -90 -12 -170 -12 -176 -1 -7 -5 -13 -11
-13 -5 0 -11 26 -12 58 -1 44 -3 32 -11 -50 l-9 -108 -101 0 c-125 0 -227 16
-227 36 0 8 7 14 16 12 14 -3 17 18 20 177 2 99 6 187 9 196 3 10 2 20 -3 23
-9 5 -121 18 -123 13z m38 -64 c-3 -10 -5 -4 -5 12 0 17 2 24 5 18 2 -7 2 -21
0 -30z m511 15 c-7 -20 -48 -23 -48 -4 0 11 9 16 26 16 16 0 24 -5 22 -12z
m-450 -10 c-6 -18 -28 -21 -28 -4 0 9 7 16 16 16 9 0 14 -5 12 -12z m-11 -295
c-2 -16 -4 -5 -4 22 0 28 2 40 4 28 2 -13 2 -35 0 -50z"/>
<path d="M9572 4608 c0 -177 -10 -247 -32 -233 -5 3 -10 34 -11 68 0 34 -4 80
-8 102 -7 32 -9 20 -10 -60 -2 -145 -20 -524 -27 -565 l-6 -35 -13 30 c-13 29
-13 28 -14 -35 -1 -36 -4 -109 -8 -162 l-6 -98 71 0 72 0 1 68 c0 37 4 76 9
87 6 17 9 15 14 -15 3 -19 7 -53 9 -75 2 -22 5 21 7 95 2 74 3 142 2 150 -3
31 10 71 21 67 7 -2 41 -1 77 3 65 7 65 7 15 9 -28 0 -55 5 -60 10 -6 5 -21
11 -35 13 -23 4 -23 5 -5 12 11 4 29 12 40 16 11 5 99 11 195 14 192 6 205 7
205 21 0 10 -23 15 -73 15 -57 1 -31 24 36 33 l62 9 0 51 c0 30 7 60 15 71 8
11 15 14 15 7 0 -8 10 -11 27 -9 l27 3 4 120 c2 66 1 162 -3 212 l-7 93 -31 0
c-18 0 -63 3 -102 7 -55 6 -71 12 -73 26 -3 15 5 17 55 17 32 0 65 5 73 10 35
23 -23 29 -271 30 l-257 0 0 -182z m48 127 c10 -12 10 -15 -4 -15 -9 0 -16 7
-16 15 0 8 2 15 4 15 2 0 9 -7 16 -15z m528 -93 c2 -7 -3 -12 -12 -12 -9 0
-16 7 -16 16 0 17 22 14 28 -4z m-175 -104 c9 -109 8 -180 -1 -194 -4 -7 -18
-14 -32 -15 -24 -4 -31 -23 -10 -25 6 -1 15 -2 20 -3 6 0 10 -7 10 -15 0 -20
-62 -28 -180 -24 l-95 3 -3 112 c-4 131 5 157 48 151 31 -5 40 10 40 65 l0 27
99 0 98 0 6 -82z m34 -175 c-3 -10 -5 -2 -5 17 0 19 2 27 5 18 2 -10 2 -26 0
-35z m123 -47 c0 -3 -4 -8 -10 -11 -5 -3 -10 -1 -10 4 0 6 5 11 10 11 6 0 10
-2 10 -4z"/>
<path d="M9738 4313 c6 -2 18 -2 25 0 6 3 1 5 -13 5 -14 0 -19 -2 -12 -5z"/>
<path d="M10320 4790 c-1 -3 -5 -135 -10 -295 -9 -333 -19 -485 -31 -485 -5 0
-9 29 -9 65 0 37 -4 65 -10 65 -6 0 -10 -93 -10 -260 l0 -260 65 0 65 0 0 68
c0 96 11 202 21 202 5 0 9 -22 9 -49 0 -28 5 -53 10 -56 6 -4 11 33 12 102 1
59 2 124 2 143 l1 35 115 1 c118 1 137 -4 119 -37 -6 -12 -4 -27 6 -46 12 -23
15 -24 15 -8 1 18 2 18 14 -4 8 -14 14 -56 15 -95 1 -39 5 -84 10 -101 l8 -30
8 27 c13 50 25 18 25 -68 l0 -84 75 0 c48 0 75 4 75 11 0 7 7 8 18 4 9 -4 23
-9 30 -12 8 -4 12 7 12 36 0 40 0 40 -27 30 -42 -16 -53 8 -53 114 0 86 -1 88
-22 85 -23 -3 -23 -2 -23 132 l0 135 25 0 c23 0 25 4 28 49 l3 48 34 -4 c38
-4 45 4 45 58 0 24 6 38 23 49 19 12 23 23 22 62 -1 27 -3 81 -3 121 -2 64 -5
75 -21 79 -14 4 -21 15 -23 41 -2 28 -8 38 -23 40 -53 8 -65 13 -65 30 0 10 5
23 12 30 6 6 8 15 4 19 -4 5 -125 8 -268 8 l-261 0 -3 -110 c-8 -218 -27 -229
-44 -24 -10 114 -16 152 -20 139z m464 -247 c3 -42 6 -106 6 -143 0 -65 -1
-68 -26 -74 -47 -12 -233 -4 -245 10 -7 9 -8 42 -4 99 7 81 8 85 31 85 21 0
24 4 19 25 -3 14 -7 36 -10 50 l-5 25 113 0 114 0 7 -77z m46 37 c0 -5 -2 -10
-4 -10 -3 0 -8 5 -11 10 -3 6 -1 10 4 10 6 0 11 -4 11 -10z m18 -158 c2 -74 0
-92 -11 -92 -31 0 -40 28 -34 103 4 39 7 76 7 80 0 5 8 7 18 5 14 -3 17 -17
20 -96z m-70 -124 c8 -8 9 -15 1 -25 -8 -9 -45 -13 -135 -13 -123 0 -142 5
-130 35 4 12 30 15 129 15 81 0 127 -4 135 -12z"/>
<path d="M11279 4787 c-1 -1 -3 -38 -5 -82 -2 -43 -8 -83 -13 -88 -17 -17 -31
4 -31 42 0 21 -6 44 -14 50 -18 15 -26 -66 -26 -279 0 -184 -6 -234 -26 -226
-14 5 -19 -45 -29 -269 -7 -143 -13 -195 -25 -195 -10 0 -19 47 -27 140 -10
108 -20 50 -22 -123 l-1 -137 23 5 c12 4 36 1 51 -5 23 -8 34 -7 52 5 14 9 25
11 29 5 3 -6 14 -10 24 -10 16 0 19 14 24 128 4 70 7 171 7 225 0 106 13 128
26 45 l8 -53 7 60 c4 33 7 144 8 246 1 220 11 370 22 363 5 -3 9 -33 9 -67 0
-42 3 -58 10 -51 7 7 10 60 8 138 l-3 128 -42 3 c-24 2 -43 3 -44 2z m69 -59
c-2 -13 -7 -23 -13 -23 -5 0 -11 10 -13 23 -2 15 2 22 13 22 11 0 15 -7 13
-22z"/>
<path d="M11534 4776 c-3 -8 -1 -23 5 -33 6 -10 11 -13 11 -8 1 6 3 18 5 27 4
23 -13 34 -21 14z"/>
<path d="M11610 4780 c-20 -13 -2 -42 31 -51 l24 -7 -25 -1 c-37 -1 -50 -19
-50 -68 0 -24 -4 -43 -9 -43 -13 0 -20 23 -14 53 5 27 -12 61 -27 52 -4 -2
-10 -125 -15 -272 -4 -147 -10 -286 -14 -308 -8 -39 -8 -39 -19 -15 -13 30
-11 46 -21 -250 -7 -198 -9 -204 -32 -70 -7 41 -17 86 -23 100 -9 22 -11 17
-17 -40 -4 -36 -7 -104 -8 -152 l-1 -87 63 2 62 2 -2 30 c-4 61 8 135 22 135
18 0 27 -29 30 -99 2 -44 6 -57 20 -59 15 -3 17 2 12 45 -6 57 10 460 19 474
15 25 32 -19 44 -116 17 -145 27 -147 45 -10 8 59 25 87 36 58 4 -10 8 -118 8
-239 l1 -222 46 -4 c57 -4 67 2 68 44 1 44 31 47 31 3 1 -20 6 -31 18 -33 9
-2 17 2 17 10 0 7 5 71 11 141 9 89 15 125 23 117 21 -21 26 -8 27 73 0 85 11
136 23 107 3 -8 12 -46 19 -85 l14 -70 7 58 c8 58 14 65 33 46 7 -7 12 -1 17
21 3 17 10 29 16 25 12 -7 12 -229 1 -295 l-8 -45 -2 55 c-1 30 -6 73 -11 95
-5 27 -8 -9 -6 -115 l1 -154 55 3 c30 1 56 4 57 5 2 1 5 46 8 100 2 53 8 113
12 134 7 36 7 35 19 -33 l11 -70 2 120 c3 202 18 445 29 458 20 24 32 133 32
287 0 141 -2 156 -17 158 -10 1 -52 3 -93 4 l-75 3 -3 -38 c-3 -29 -7 -37 -18
-33 -20 8 -32 -28 -40 -124 -5 -57 -11 -80 -20 -80 -10 0 -14 13 -14 43 0 47
-15 83 -24 57 -2 -8 -10 -72 -17 -143 -11 -124 -19 -151 -36 -125 -5 8 -10 -8
-13 -42 -5 -53 -6 -55 -35 -56 -17 -1 -41 3 -53 7 -22 8 -22 12 -24 191 l-2
183 -5 -167 c-3 -91 -9 -170 -13 -174 -5 -4 -9 -5 -9 -3 -1 2 -5 101 -8 219
l-6 215 -22 -2 c-15 -2 -23 3 -23 13 0 10 7 14 23 12 18 -2 22 2 22 22 0 24
-2 25 -85 28 -47 1 -92 -2 -100 -8z m210 -531 c0 -6 -4 -7 -10 -4 -5 3 -10 11
-10 16 0 6 5 7 10 4 6 -3 10 -11 10 -16z m126 -60 c13 -21 -19 -35 -66 -29
-25 3 -38 9 -30 12 80 29 87 31 96 17z"/>
<path d="M12843 4782 c-36 -4 -41 -16 -17 -43 14 -16 14 -18 -5 -28 -11 -7
-31 -9 -44 -6 -23 6 -24 4 -31 -74 -7 -91 -20 -132 -38 -129 -12 3 -17 -27
-18 -118 0 -35 -24 -52 -46 -33 -10 8 -11 16 -3 31 9 16 7 24 -5 36 -15 15
-16 15 -17 -3 -1 -11 -2 -24 -4 -30 -1 -5 -3 -38 -3 -72 -2 -58 -4 -63 -27
-69 -22 -5 -25 -12 -27 -58 -3 -96 -17 -196 -27 -196 -15 0 -20 14 -10 26 7 9
6 20 -6 38 -10 14 -21 26 -25 26 -4 0 -11 -39 -16 -87 -8 -81 -11 -88 -30 -85
-20 3 -21 -3 -28 -103 -4 -58 -10 -115 -15 -127 l-8 -23 -7 22 c-7 22 -32 37
-47 27 -5 -3 -9 -21 -9 -40 0 -39 21 -54 51 -35 13 7 19 8 19 1 0 -7 27 -10
73 -8 70 3 72 4 70 28 -4 45 6 70 27 70 12 0 20 7 20 16 0 11 -6 14 -20 9 -16
-5 -20 -2 -20 14 0 14 6 21 19 21 27 0 34 15 35 69 l1 46 140 -1 140 -1 5 -49
c4 -41 8 -48 24 -46 28 5 36 -15 36 -100 0 -71 10 -102 24 -79 4 5 31 7 63 4
l56 -6 -7 139 c-5 76 -11 259 -14 406 -4 146 -10 270 -14 274 -5 4 -8 -29 -8
-74 0 -100 -19 -123 -21 -25 -1 37 -4 138 -8 223 l-6 155 -25 1 c-48 1 -61 4
-56 12 2 4 19 9 37 10 40 3 51 10 47 30 -2 12 -18 16 -73 16 -38 1 -85 0 -102
-2z m60 -59 c-7 -2 -21 -2 -30 0 -10 3 -4 5 12 5 17 0 24 -2 18 -5z m-42 -336
c-13 -13 -26 -3 -16 12 3 6 11 8 17 5 6 -4 6 -10 -1 -17z m29 -177 l0 -140
-75 0 -76 0 3 98 3 97 39 3 c37 3 38 4 34 38 -4 36 2 42 45 43 l27 1 0 -140z
m-100 110 c0 -13 -5 -18 -15 -14 -8 4 -15 12 -15 20 0 8 7 14 15 14 8 0 15 -9
15 -20z m131 -222 c-7 -26 -9 -9 -10 77 -1 146 13 194 17 58 1 -57 -2 -117 -7
-135z m-331 87 c0 -14 -4 -25 -10 -25 -5 0 -10 11 -10 25 0 14 5 25 10 25 6 0
10 -11 10 -25z m337 -332 c-3 -10 -5 -4 -5 12 0 17 2 24 5 18 2 -7 2 -21 0
-30z"/>
<path d="M13694 4779 c-2 -4 -1 -14 2 -23 4 -11 12 -13 27 -7 33 13 112 -1
112 -19 0 -12 -15 -15 -70 -16 l-70 -1 -5 -166 c-5 -161 -9 -182 -33 -182 -9
0 -14 -56 -18 -193 -5 -150 -9 -196 -20 -202 -17 -11 -24 1 -34 55 -7 38 -8
39 -15 13 -10 -32 -25 -402 -17 -414 3 -5 32 -7 66 -6 l61 4 0 77 c0 131 10
202 29 199 9 -2 23 -23 31 -48 l15 -45 7 150 c9 178 26 296 39 273 17 -30 39
-273 39 -425 0 -83 3 -158 6 -167 12 -32 24 -3 18 42 -6 48 10 286 22 317 16
41 24 -20 24 -192 l0 -183 54 0 55 0 3 42 c2 33 8 44 22 46 25 5 37 -16 30
-50 -3 -16 -1 -28 4 -28 12 0 20 69 29 227 3 67 10 120 15 117 4 -3 8 -20 8
-37 0 -24 3 -28 10 -17 5 8 10 42 10 75 1 101 30 173 42 101 4 -27 28 -33 28
-7 0 17 16 39 22 29 1 -2 4 -115 7 -253 5 -198 9 -249 19 -247 7 1 35 3 63 3
l49 2 0 117 c0 64 3 200 7 301 6 148 9 171 14 119 4 -36 7 -107 8 -159 2 -185
15 -76 21 188 4 147 11 275 16 282 5 8 10 23 11 34 2 10 8 22 13 25 5 3 11 62
12 130 l3 125 -115 -1 -115 -2 -10 -86 c-6 -47 -14 -89 -19 -93 -4 -4 -16 2
-26 14 l-18 22 -6 -22 c-3 -12 -6 -46 -6 -76 0 -75 -21 -182 -37 -188 -8 -3
-13 -22 -13 -47 0 -60 -9 -69 -58 -58 -50 12 -65 -1 -54 -43 6 -21 15 -29 36
-31 23 -2 29 2 38 27 14 41 28 36 28 -10 l0 -39 -69 1 -68 0 -7 81 c-3 45 -6
188 -6 319 l0 238 -131 -3 c-72 -1 -133 -6 -135 -9z m523 -231 c-3 -8 -6 -5
-6 6 -1 11 2 17 5 13 3 -3 4 -12 1 -19z"/>
<path d="M14960 4778 c-24 -9 -25 -15 -5 -34 22 -22 18 -32 -12 -36 -25 -3
-29 -8 -33 -48 -4 -36 -9 -44 -22 -42 -16 2 -18 -5 -18 -56 0 -32 -3 -62 -7
-66 -5 -4 -8 -24 -8 -44 0 -28 -5 -37 -19 -40 -25 -5 -35 14 -29 55 4 21 2 33
-6 33 -10 0 -17 -61 -12 -122 1 -14 -3 -29 -8 -33 -6 -3 -11 -23 -11 -44 0
-45 -9 -57 -26 -33 -14 20 -16 12 -35 -165 -9 -83 -15 -113 -25 -113 -17 0
-18 12 -3 27 8 8 8 17 0 31 -6 11 -11 37 -11 56 0 68 -19 36 -24 -41 -6 -105
-16 -163 -27 -163 -5 0 -9 16 -9 35 0 53 -20 42 -21 -12 -1 -27 -2 -71 -3
-100 -1 -62 -8 -70 -42 -54 -15 7 -30 8 -35 4 -4 -4 -9 -39 -11 -77 l-3 -70
65 2 c36 1 83 3 105 5 l40 2 3 77 c3 75 3 77 30 80 26 3 27 5 24 56 l-3 52
172 -1 c115 -1 172 -5 174 -13 2 -6 6 -67 9 -136 2 -69 5 -126 5 -127 1 -2 31
-3 68 -3 l66 0 -7 103 c-3 56 -9 183 -13 282 -3 99 -9 189 -14 200 -6 16 -8
14 -8 -12 -1 -18 -5 -33 -10 -33 -5 0 -12 118 -15 263 -4 144 -10 271 -13 281
-5 18 -6 18 -22 -3 -16 -21 -18 -22 -32 -5 -8 9 -14 33 -14 53 l0 36 -62 0
c-34 1 -71 -3 -83 -7z m-110 -419 c0 -5 -9 -9 -20 -9 -19 0 -26 11 -14 23 8 8
34 -3 34 -14z m208 -64 c7 -105 4 -218 -6 -224 -6 -3 -41 -4 -79 -1 l-68 5 -3
124 c-1 69 0 131 3 138 3 10 23 13 77 11 l73 -3 3 -50z m38 -102 c-11 -11 -19
6 -11 24 8 17 8 17 12 0 3 -10 2 -21 -1 -24z m-516 -485 c0 -10 -7 -18 -15
-18 -16 0 -19 17 -9 45 5 13 8 14 15 3 5 -7 9 -21 9 -30z m88 -23 c-4 -31 -17
-36 -32 -12 -8 14 -8 20 4 27 24 16 32 12 28 -15z"/>
<path d="M15578 4779 c-6 -4 -8 -14 -5 -23 5 -13 18 -14 74 -9 61 5 94 16 82
27 -8 7 -139 12 -151 5z"/>
<path d="M16109 4783 l-46 -4 -5 -190 c-4 -119 -10 -195 -17 -202 -8 -8 -11
-5 -11 13 0 15 -4 20 -9 15 -9 -10 -21 -133 -20 -214 0 -24 -6 -51 -14 -60 -8
-9 -17 -25 -20 -36 -4 -15 -5 -14 -6 7 0 15 -5 29 -10 32 -4 3 -12 46 -15 96
-4 49 -11 92 -15 94 -14 9 -33 -12 -27 -30 6 -20 -9 -53 -19 -42 -4 4 -9 19
-11 35 -4 33 -13 89 -20 120 -2 14 -9 20 -18 17 -16 -6 -22 27 -32 176 -7 104
-10 116 -27 101 -8 -5 -44 -6 -96 -1 -47 5 -88 7 -93 4 -4 -3 -8 -78 -8 -167
0 -89 -5 -169 -10 -177 -6 -10 -10 42 -10 158 0 97 -4 172 -9 172 -5 0 -11
-132 -13 -309 -1 -170 -6 -313 -10 -317 -12 -11 -18 -1 -27 47 -5 31 -10 -29
-15 -201 -4 -135 -10 -252 -12 -261 -3 -9 3 -25 12 -34 15 -15 19 -15 28 -3 6
9 22 15 36 14 l25 -1 6 215 c3 118 8 222 11 230 3 8 9 24 13 35 12 35 35 -61
35 -149 0 -44 2 -77 4 -75 2 2 9 83 16 179 6 96 16 180 22 187 7 9 15 10 30 2
16 -9 19 -17 13 -46 -5 -26 -2 -40 11 -54 17 -19 18 -19 40 2 l22 21 12 -36
c6 -19 10 -41 9 -48 -6 -45 3 -208 11 -208 6 0 10 18 10 39 0 22 5 43 10 46 6
4 10 -14 11 -47 0 -29 2 -64 4 -78 1 -14 6 -71 10 -128 5 -67 12 -101 19 -99
6 2 10 20 8 40 -2 21 3 45 11 57 14 21 15 21 23 -7 4 -15 8 -41 9 -58 0 -29 2
-30 53 -35 29 -3 55 -4 58 -1 2 2 4 37 4 77 0 68 14 124 30 124 10 0 20 -64
20 -132 0 -31 5 -60 10 -63 6 -3 10 -5 10 -3 0 2 3 122 6 268 3 146 8 272 10
280 5 13 6 13 15 0 8 -13 10 -13 18 -1 9 14 26 504 19 576 -3 43 -4 44 -79 38z
m5 -29 c27 -10 20 -44 -9 -44 -18 0 -25 5 -25 18 0 29 9 36 34 26z m-328 -561
c-10 -10 -19 5 -10 18 6 11 8 11 12 0 2 -7 1 -15 -2 -18z m-256 -524 c0 -11
-4 -17 -10 -14 -5 3 -10 13 -10 21 0 8 5 14 10 14 6 0 10 -9 10 -21z"/>
<path d="M17023 4778 c-21 -10 -21 -12 -6 -23 16 -12 16 -18 0 -95 -22 -115
-36 -124 -39 -24 -1 43 -2 94 -1 112 0 19 -5 32 -12 32 -9 0 -14 -57 -19 -212
-7 -228 -14 -298 -27 -298 -5 0 -9 14 -9 32 0 17 -3 28 -6 25 -4 -4 -11 -80
-15 -169 -9 -176 -20 -269 -30 -253 -4 6 -12 44 -19 85 -6 41 -13 82 -15 90
-1 8 -3 -25 -4 -73 -1 -100 -11 -127 -46 -127 -32 0 -34 -31 -3 -45 39 -17 34
-41 -9 -49 -47 -7 -196 -8 -216 0 -16 6 -16 95 -1 667 l6 268 -26 -7 c-22 -5
-26 -3 -26 14 0 27 17 37 35 22 12 -10 15 -9 15 9 0 18 -6 21 -40 21 -41 0
-49 -10 -30 -40 6 -9 5 -19 -2 -28 -6 -7 -15 -30 -19 -50 l-7 -37 -1 38 c0 20
-5 37 -10 37 -14 0 -21 -56 -21 -170 0 -150 -8 -200 -31 -200 -18 0 -21 8 -32
65 -2 11 -7 -20 -12 -70 -11 -111 -13 -583 -3 -608 6 -15 11 -16 28 -7 32 17
53 -5 46 -45 -6 -32 -6 -32 40 -39 57 -7 316 -6 402 3 l64 6 4 70 c6 90 24
114 59 79 9 -9 19 -14 22 -10 4 4 8 61 10 129 4 158 12 247 24 247 5 0 9 -16
9 -35 0 -19 4 -35 8 -35 8 0 22 546 18 665 -1 43 -15 52 -53 33z m-511 -779
c8 -96 3 -121 -20 -117 -13 2 -18 17 -20 63 -4 79 6 147 21 142 7 -2 15 -37
19 -88z m-12 -195 c0 -8 -4 -14 -10 -14 -5 0 -10 9 -10 21 0 11 5 17 10 14 6
-3 10 -13 10 -21z m-92 -51 c-2 -10 -10 -18 -18 -18 -8 0 -16 8 -18 18 -2 12
3 17 18 17 15 0 20 -5 18 -17z m502 -73 c0 -5 -4 -10 -10 -10 -5 0 -10 5 -10
10 0 6 5 10 10 10 6 0 10 -4 10 -10z"/>
<path d="M17288 4780 c-4 -14 -7 -84 -13 -270 -3 -113 -9 -221 -12 -240 -6
-35 -6 -35 -18 20 -11 51 -12 43 -17 -128 -2 -100 -8 -185 -12 -190 -12 -11
-36 29 -36 59 0 38 -16 45 -24 11 -4 -15 -10 -115 -13 -224 l-6 -196 59 -4
c33 -2 62 -3 67 -1 4 3 7 51 7 107 0 128 7 168 29 164 13 -3 18 -25 27 -103
l11 -100 3 70 c1 39 5 169 9 290 6 213 7 220 26 216 11 -2 40 -5 65 -7 25 -1
48 -3 51 -3 4 -1 10 -47 14 -102 5 -64 11 -96 16 -88 5 8 9 24 9 37 0 13 4 20
10 17 6 -3 10 -50 11 -103 0 -92 15 -221 18 -160 0 15 6 30 12 34 8 5 10 -3 7
-24 -2 -17 -1 -29 3 -27 10 7 19 -60 19 -142 l0 -73 66 0 c36 0 74 5 84 10 13
7 21 7 25 0 3 -5 13 -10 21 -10 11 0 14 26 14 148 0 193 11 385 21 352 4 -14
7 -46 8 -72 1 -27 6 -48 11 -48 6 0 10 53 10 139 0 124 14 288 26 300 12 12
27 -23 34 -76 4 -32 8 -56 9 -53 12 45 20 151 22 296 l2 179 -63 0 -64 0 -3
-100 c-3 -105 -20 -192 -34 -178 -11 11 -29 151 -23 168 3 7 1 16 -5 20 -8 4
-11 -28 -11 -102 0 -186 -12 -428 -21 -437 -12 -13 -122 -7 -130 6 -4 6 -10
53 -14 104 -4 52 -11 94 -16 94 -5 0 -9 -7 -9 -15 0 -8 -4 -15 -9 -15 -5 0
-12 68 -16 150 -5 103 -11 150 -18 147 -6 -2 -14 -14 -18 -28 -6 -22 -7 -21
-13 11 -3 19 -8 67 -10 105 -3 39 -5 71 -5 72 -1 1 -14 -2 -30 -7 -16 -4 -32
-5 -35 -2 -8 7 -125 9 -128 2z m77 -44 c0 -29 -31 -44 -50 -25 -23 23 -9 51
24 47 18 -2 26 -9 26 -22z m95 -7 c0 -15 -5 -20 -22 -17 -34 5 -37 38 -4 38
20 0 26 -5 26 -21z m450 7 c0 -8 -5 -18 -11 -22 -14 -8 -33 11 -25 25 10 16
36 13 36 -3z m-350 -542 c0 -14 -4 -23 -9 -20 -5 3 -7 15 -4 26 7 28 13 25 13
-6z"/>
<path d="M18354 4775 c-4 -8 -4 -21 -1 -28 10 -26 -10 -39 -65 -41 -65 -3 -82
-12 -75 -38 3 -11 3 -26 0 -34 -10 -27 -23 -14 -24 24 l-1 37 -10 -40 c-5 -22
-12 -66 -15 -97 -5 -59 -10 -67 -31 -46 -9 9 -12 -6 -13 -67 0 -44 -6 -125
-13 -180 l-12 -100 -8 58 c-5 32 -6 61 -3 64 10 9 -12 43 -27 43 -19 0 -31
-194 -21 -337 l7 -108 18 70 c10 39 18 88 18 109 0 20 3 40 6 43 3 4 6 -13 6
-37 0 -23 4 -70 10 -104 5 -33 13 -105 16 -158 3 -54 10 -98 15 -98 5 0 9 13
9 29 0 17 5 33 10 36 6 4 10 -7 10 -27 0 -42 12 -60 33 -53 12 5 16 -1 19 -32
l3 -38 220 0 c121 0 233 4 248 8 24 7 26 9 13 22 -8 8 -26 15 -40 15 -14 0
-26 4 -26 9 0 10 47 21 100 24 l35 2 6 150 c4 83 7 207 8 277 l1 128 -157 -6
c-87 -4 -162 -10 -166 -14 -12 -10 3 -60 17 -57 6 1 11 -5 11 -13 0 -8 -7 -15
-15 -15 -10 0 -16 -13 -18 -41 -3 -39 -1 -42 29 -48 17 -3 57 -6 89 -6 42 0
59 -4 63 -15 9 -21 -1 -24 -96 -26 -48 -1 -87 -5 -87 -9 0 -9 54 -17 125 -19
28 -1 54 -6 58 -10 5 -5 5 -49 -1 -97 -7 -65 -10 -76 -11 -41 -1 48 -9 55 -45
41 -11 -4 -13 -11 -6 -30 5 -13 6 -24 3 -24 -4 0 -2 -5 5 -12 7 -7 12 -15 12
-18 0 -9 -263 -22 -284 -14 -12 4 -16 19 -16 54 0 51 -7 64 -29 51 -7 -5 -22
-6 -33 -3 -19 4 -19 14 -16 263 2 141 6 260 9 263 11 11 40 -6 35 -19 -5 -15
19 -53 28 -44 3 3 7 40 8 82 1 71 3 77 22 77 34 0 44 13 42 57 -1 52 0 53 162
53 l122 0 0 -54 c0 -30 5 -58 10 -61 6 -3 10 -1 10 6 0 10 3 10 12 1 7 -7 11
-28 10 -46 -3 -33 -2 -34 40 -38 24 -3 44 -4 45 -4 1 1 6 44 11 96 l9 95 2
-97 c1 -77 4 -98 15 -98 21 0 23 16 18 118 -4 88 -6 93 -26 90 -18 -3 -21 2
-21 29 0 45 -3 47 -107 53 -12 1 -18 10 -18 27 0 21 2 23 15 13 16 -13 35 -6
35 14 0 18 -67 26 -217 26 -101 0 -125 -3 -129 -15z m385 -282 c0 -5 -4 -17
-9 -28 -8 -18 -9 -17 -9 8 -1 15 4 27 9 27 6 0 10 -3 9 -7z m-479 -683 c0 -5
-7 -10 -15 -10 -8 0 -15 5 -15 10 0 6 7 10 15 10 8 0 15 -4 15 -10z"/>
<path d="M19294 4775 c-4 -8 -4 -21 -1 -28 3 -8 1 -20 -4 -28 -13 -20 -30 8
-22 38 4 19 1 23 -16 23 -25 0 -27 -15 -6 -37 20 -20 12 -30 -35 -43 -38 -10
-52 -31 -30 -45 18 -11 10 -25 -15 -25 -22 0 -24 4 -22 35 1 18 -2 35 -8 37
-6 2 -14 -30 -18 -72 -12 -111 -15 -120 -37 -120 -11 0 -20 -3 -21 -7 -4 -47
-11 -79 -19 -87 -6 -6 -10 -25 -10 -43 0 -37 -19 -46 -21 -10 -1 12 -2 27 -4
32 -1 6 -3 30 -5 55 -2 39 -4 34 -15 -40 -14 -90 -18 -477 -7 -565 7 -46 9
-50 35 -51 34 -1 48 -19 45 -54 -2 -18 3 -25 22 -30 32 -7 43 -60 13 -60 -14
-1 -13 -4 7 -15 28 -16 291 -20 473 -8 82 5 97 9 95 22 -3 12 -15 16 -48 16
-33 0 -45 4 -45 15 0 11 13 16 45 18 24 2 48 9 53 15 7 9 10 9 14 0 14 -35 23
-4 24 80 2 153 13 270 26 274 8 3 13 -14 16 -54 2 -32 4 8 5 88 l2 147 -31 6
c-42 8 -244 7 -294 -2 -39 -7 -40 -8 -41 -52 -1 -25 -3 -63 -5 -85 l-4 -40 74
-10 c71 -10 96 -24 69 -41 -7 -4 -32 -7 -56 -5 -33 2 -43 -1 -40 -11 3 -7 21
-14 44 -14 21 -1 45 -2 52 -3 11 -1 12 -13 7 -53 -3 -29 -7 -75 -8 -101 l-3
-49 -159 1 c-87 1 -162 4 -167 7 -4 3 -8 17 -8 32 0 15 -4 90 -9 167 -5 76 -8
142 -6 146 3 3 5 65 6 136 0 71 4 134 7 139 4 5 16 14 27 20 12 7 19 20 17 34
-3 30 15 50 44 50 20 0 23 5 26 48 l3 47 85 3 c47 2 109 0 138 -3 l52 -6 -2
-43 c-2 -57 6 -66 53 -66 50 0 49 -23 -1 -30 -83 -12 -17 -40 96 -40 l44 0 0
100 c0 91 -8 118 -25 90 -12 -19 -25 1 -25 39 0 35 -3 39 -32 47 -18 4 -44 8
-58 8 -15 1 -26 8 -28 19 -3 14 4 17 32 17 24 0 36 5 36 14 0 18 -72 26 -238
26 -109 0 -134 -3 -138 -15z m-154 -610 c6 13 9 -13 9 -72 1 -52 -4 -104 -11
-118 -9 -21 -9 -31 0 -46 16 -25 15 -29 -6 -29 -15 0 -19 9 -21 48 -4 74 -3
90 6 212 7 103 8 108 11 50 3 -46 6 -59 12 -45z m417 -232 c-3 -10 -5 -2 -5
17 0 19 2 27 5 18 2 -10 2 -26 0 -35z"/>
<path d="M20245 4780 c-12 -19 13 -35 52 -35 20 0 38 -6 40 -12 3 -9 -9 -13
-41 -13 -24 0 -48 -5 -52 -11 -3 -6 -14 -9 -24 -6 -15 4 -18 -5 -24 -62 -3
-36 -6 -85 -6 -107 0 -28 -5 -44 -15 -48 -8 -3 -15 -1 -15 5 0 6 -4 7 -10 4
-5 -3 -10 -37 -10 -75 0 -57 -3 -71 -18 -79 -13 -7 -22 -7 -30 1 -8 8 -15 8
-26 -1 -11 -9 -16 -37 -18 -94 -2 -59 -7 -82 -16 -82 -18 0 -32 -25 -32 -60 0
-17 -7 -40 -15 -52 -8 -12 -12 -28 -9 -37 3 -9 1 -16 -5 -16 -6 0 -11 10 -11
23 0 23 -16 55 -23 47 -6 -8 -29 -182 -28 -215 0 -46 -8 -77 -20 -69 -6 3 -10
22 -9 43 1 20 1 43 -1 51 -2 8 -5 -30 -8 -85 l-6 -100 -43 2 -43 2 3 -37 3
-37 100 1 c96 1 100 2 103 23 3 20 0 22 -30 19 -24 -2 -33 1 -33 12 0 9 10 15
25 16 14 0 35 7 47 14 18 12 19 15 7 25 -17 12 -9 45 12 45 24 0 42 39 34 75
-5 22 -4 35 4 38 6 2 72 3 146 3 l134 -1 -3 -47 c-2 -44 -1 -47 26 -50 l28 -3
3 -87 c1 -49 7 -88 12 -88 6 0 10 4 10 8 0 16 53 12 66 -5 11 -15 16 -16 34
-5 13 8 34 10 57 6 l36 -7 -7 144 c-4 79 -9 145 -12 148 -9 9 -13 -7 -25 -109
-7 -58 -15 -109 -19 -113 -4 -4 -10 77 -14 180 -3 103 -9 268 -12 365 -4 98
-11 175 -15 172 -5 -3 -9 -33 -9 -67 0 -35 -4 -57 -9 -51 -9 10 -20 221 -21
394 l0 105 -104 3 c-69 2 -107 -1 -111 -8z m189 -38 c2 -4 1 -14 -3 -21 -11
-18 -45 -10 -49 12 -3 12 3 17 22 17 14 0 27 -4 30 -8z m-254 -286 c0 -8 -4
-18 -10 -21 -5 -3 -10 3 -10 14 0 12 5 21 10 21 6 0 10 -6 10 -14z m155 -56
c0 -11 -9 -14 -32 -12 -19 2 -33 -1 -33 -7 0 -6 -4 -11 -10 -11 -10 0 -14 32
-6 41 2 2 22 4 43 4 27 0 38 -5 38 -15z m4 -54 c8 -5 16 -4 21 4 17 27 22 -15
15 -112 -12 -174 -15 -178 -106 -178 -90 0 -89 -1 -89 99 0 113 6 134 32 120
26 -14 34 -5 20 25 -8 18 -7 27 4 38 15 15 80 18 103 4z m-129 -31 c0 -8 -4
-15 -10 -15 -5 0 -10 7 -10 15 0 8 5 15 10 15 6 0 10 -7 10 -15z m162 -457
c-9 -9 -12 -7 -12 12 0 19 3 21 12 12 9 -9 9 -15 0 -24z m94 -89 c3 -6 1 -16
-5 -22 -16 -16 -15 -60 2 -51 6 4 1 -5 -12 -19 -14 -15 -27 -24 -30 -22 -3 3
-6 33 -7 65 -2 57 -1 60 21 60 13 0 27 -5 31 -11z"/>
<path d="M20872 4778 c-20 -20 -14 -27 31 -30 57 -4 60 -32 3 -35 -21 -1 -40
-4 -43 -6 -2 -2 -6 -100 -9 -218 -4 -118 -10 -230 -14 -249 l-8 -35 -2 40 c-1
22 -5 49 -10 60 -5 12 -9 -35 -9 -126 -1 -156 -17 -355 -32 -379 -6 -10 -9 3
-10 40 -2 53 -2 53 -9 -20 -4 -41 -8 -103 -9 -138 l-1 -63 285 1 285 2 0 84 0
84 -174 0 c-96 0 -181 3 -190 6 -14 5 -14 8 0 21 13 14 13 17 -3 28 -16 12
-18 30 -17 167 1 178 12 308 25 308 5 0 9 -8 9 -17 0 -9 3 -14 6 -10 12 12 25
409 14 422 -8 9 -6 17 5 28 32 32 15 44 -65 46 -26 1 -51 -4 -58 -11z"/>
<path d="M5035 4770 c-8 -13 9 -20 24 -11 10 6 9 10 -3 14 -8 3 -18 2 -21 -3z"/>
<path d="M7991 4764 c0 -11 3 -14 6 -6 3 7 2 16 -1 19 -3 4 -6 -2 -5 -13z"/>
<path d="M11205 4769 c-10 -15 3 -25 16 -12 7 7 7 13 1 17 -6 3 -14 1 -17 -5z"/>
<path d="M12090 4765 c0 -8 5 -15 10 -15 6 0 10 7 10 15 0 8 -4 15 -10 15 -5
0 -10 -7 -10 -15z"/>
<path d="M12760 4760 c0 -11 5 -20 10 -20 6 0 10 9 10 20 0 11 -4 20 -10 20
-5 0 -10 -9 -10 -20z"/>
<path d="M14921 4764 c0 -11 3 -14 6 -6 3 7 2 16 -1 19 -3 4 -6 -2 -5 -13z"/>
<path d="M15150 4768 c0 -17 20 -47 20 -31 0 6 3 18 6 27 4 11 1 16 -10 16 -9
0 -16 -6 -16 -12z"/>
<path d="M15757 4772 c-18 -4 -18 -4 0 -18 23 -17 33 -17 33 0 0 18 -10 24
-33 18z"/>
<path d="M16240 4768 c0 -7 5 -20 10 -28 8 -12 10 -9 10 13 0 15 -4 27 -10 27
-5 0 -10 -6 -10 -12z"/>
<path d="M16570 4759 c0 -24 23 -21 28 4 2 10 -3 17 -12 17 -10 0 -16 -9 -16
-21z"/>
<path d="M17111 4764 c0 -11 3 -14 6 -6 3 7 2 16 -1 19 -3 4 -6 -2 -5 -13z"/>
<path d="M18300 4765 c0 -8 7 -15 15 -15 8 0 15 7 15 15 0 8 -7 15 -15 15 -8
0 -15 -7 -15 -15z"/>
<path d="M21047 4733 c7 -71 11 -75 12 -10 1 31 -3 57 -8 57 -5 0 -6 -21 -4
-47z"/>
<path d="M4261 4743 c0 -25 1 -26 9 -8 12 27 12 35 0 35 -5 0 -10 -12 -9 -27z"/>
<path d="M9071 4713 c1 -93 17 -111 18 -20 1 45 -3 77 -9 77 -6 0 -10 -25 -9
-57z"/>
<path d="M10958 4763 c7 -3 16 -2 19 1 4 3 -2 6 -13 5 -11 0 -14 -3 -6 -6z"/>
<path d="M18735 4760 c3 -5 10 -10 16 -10 5 0 9 5 9 10 0 6 -7 10 -16 10 -8 0
-12 -4 -9 -10z"/>
<path d="M20200 4760 c0 -5 7 -7 15 -4 8 4 15 8 15 10 0 2 -7 4 -15 4 -8 0
-15 -4 -15 -10z"/>
<path d="M16248 4707 c-5 -10 -8 -64 -7 -120 0 -77 3 -96 10 -78 5 14 8 68 7
120 -2 55 -6 88 -10 78z"/>
<path d="M16585 4702 c-6 -4 -8 -22 -4 -42 7 -40 8 -39 15 13 6 39 5 41 -11
29z"/>
<path d="M17113 4665 c0 -22 2 -30 4 -17 2 12 2 30 0 40 -3 9 -5 -1 -4 -23z"/>
<path d="M4981 4674 c0 -11 3 -14 6 -6 3 7 2 16 -1 19 -3 4 -6 -2 -5 -13z"/>
<path d="M7290 4680 c0 -5 5 -10 10 -10 6 0 10 5 10 10 0 6 -4 10 -10 10 -5 0
-10 -4 -10 -10z"/>
<path d="M18790 4680 c0 -5 7 -10 16 -10 8 0 12 5 9 10 -3 6 -10 10 -16 10 -5
0 -9 -4 -9 -10z"/>
<path d="M18401 4594 c0 -11 3 -14 6 -6 3 7 2 16 -1 19 -3 4 -6 -2 -5 -13z"/>
<path d="M1455 4590 c3 -5 11 -10 16 -10 6 0 7 5 4 10 -3 6 -11 10 -16 10 -6
0 -7 -4 -4 -10z"/>
<path d="M18599 4593 c-5 -28 -3 -73 3 -73 5 0 8 18 8 40 0 34 -7 55 -11 33z"/>
<path d="M19317 4580 c-3 -11 -1 -23 4 -26 5 -3 9 3 10 13 0 16 1 16 9 -2 8
-18 9 -17 9 8 1 32 -24 38 -32 7z"/>
<path d="M19380 4575 c0 -14 5 -25 10 -25 6 0 10 11 10 25 0 14 -4 25 -10 25
-5 0 -10 -11 -10 -25z"/>
<path d="M19430 4577 c0 -15 4 -27 8 -27 10 0 9 36 -1 46 -4 4 -7 -5 -7 -19z"/>
<path d="M19530 4566 c0 -19 5 -38 10 -41 6 -4 10 10 10 34 0 23 -4 41 -10 41
-5 0 -10 -15 -10 -34z"/>
<path d="M19480 4570 c0 -11 5 -20 10 -20 6 0 10 9 10 20 0 11 -4 20 -10 20
-5 0 -10 -9 -10 -20z"/>
<path d="M18877 4503 c-13 -12 -7 -63 6 -63 9 0 12 11 9 35 -4 37 -5 39 -15
28z"/>
<path d="M18646 4472 c-4 -13 -5 -26 -2 -29 10 -11 18 4 14 29 l-4 23 -8 -23z"/>
<path d="M20076 4391 c-4 -7 -5 -15 -2 -18 9 -9 19 4 14 18 -4 11 -6 11 -12 0z"/>
<path d="M18800 4369 c0 -5 5 -7 10 -4 6 3 10 8 10 11 0 2 -4 4 -10 4 -5 0
-10 -5 -10 -11z"/>
<path d="M14730 4314 c0 -8 5 -12 10 -9 6 3 10 10 10 16 0 5 -4 9 -10 9 -5 0
-10 -7 -10 -16z"/>
<path d="M17643 4233 c-10 -26 6 -44 34 -41 22 2 29 9 31 30 3 25 1 27 -29 25
-17 -1 -34 -8 -36 -14z"/>
<path d="M18799 4203 c0 -27 -3 -57 -5 -68 -2 -11 -1 -58 3 -105 l7 -85 7 70
c11 112 10 235 -1 235 -5 0 -10 -21 -11 -47z"/>
<path d="M19320 4210 c0 -22 5 -40 10 -40 6 0 10 18 10 40 0 22 -4 40 -10 40
-5 0 -10 -18 -10 -40z"/>
<path d="M10945 4200 c-9 -16 -11 -30 -6 -30 5 0 16 -3 25 -6 13 -5 16 1 16
30 0 44 -14 46 -35 6z"/>
<path d="M17410 4215 c-18 -21 -4 -47 22 -43 29 4 35 34 10 47 -15 8 -23 7
-32 -4z"/>
<path d="M3330 4190 c0 -5 9 -10 21 -10 11 0 17 5 14 10 -3 6 -13 10 -21 10
-8 0 -14 -4 -14 -10z"/>
<path d="M19320 4116 c0 -25 5 -46 10 -46 6 0 10 18 10 39 0 22 -4 43 -10 46
-6 4 -10 -12 -10 -39z"/>
<path d="M5183 4115 c0 -22 2 -30 4 -17 2 12 2 30 0 40 -3 9 -5 -1 -4 -23z"/>
<path d="M12480 4115 c0 -14 4 -25 9 -25 12 0 23 29 15 41 -10 18 -24 9 -24
-16z"/>
<path d="M15734 4099 c-3 -6 -1 -16 5 -22 8 -8 11 -5 11 11 0 24 -5 28 -16 11z"/>
<path d="M8690 4090 c0 -5 6 -10 14 -10 8 0 18 5 21 10 3 6 -3 10 -14 10 -12
0 -21 -4 -21 -10z"/>
<path d="M10486 4011 c-4 -5 -2 -12 3 -15 5 -4 12 -2 15 3 4 5 2 12 -3 15 -5
4 -12 2 -15 -3z"/>
<path d="M10592 4009 c2 -6 7 -10 11 -10 4 1 17 1 30 2 21 0 21 1 2 9 -28 12
-47 12 -43 -1z"/>
<path d="M19390 4010 c0 -5 7 -10 16 -10 8 0 12 5 9 10 -3 6 -10 10 -16 10 -5
0 -9 -4 -9 -10z"/>
<path d="M548 4003 c7 -3 16 -2 19 1 4 3 -2 6 -13 5 -11 0 -14 -3 -6 -6z"/>
<path d="M1117 3875 c-9 -126 -9 -250 0 -258 3 -4 14 0 23 8 14 13 16 24 9 58
-4 23 -9 74 -10 112 0 39 -4 95 -8 125 -6 53 -7 52 -14 -45z"/>
<path d="M13129 3770 c-5 -123 0 -164 17 -147 3 3 2 68 -3 144 l-9 138 -5
-135z"/>
<path d="M18516 3883 c-10 -10 -7 -71 4 -78 6 -4 10 6 10 22 0 16 5 34 11 40
7 7 6 12 -4 16 -8 3 -18 3 -21 0z"/>
<path d="M20965 3880 c-3 -5 1 -10 9 -10 9 0 16 5 16 10 0 6 -4 10 -9 10 -6 0
-13 -4 -16 -10z"/>
<path d="M1580 3866 c0 -8 5 -18 10 -21 6 -3 10 3 10 14 0 12 -4 21 -10 21 -5
0 -10 -6 -10 -14z"/>
<path d="M1680 3854 c21 -55 15 -64 -44 -64 l-53 0 -7 -76 c-3 -46 -2 -82 4
-89 6 -7 32 -11 67 -9 l58 3 0 130 c0 117 -2 131 -17 131 -15 0 -16 -4 -8 -26z"/>
<path d="M4192 3855 c0 -16 2 -22 5 -12 2 9 2 23 0 30 -3 6 -5 -1 -5 -18z"/>
<path d="M19216 3864 c-9 -24 -2 -26 12 -4 7 11 8 20 3 20 -5 0 -12 -7 -15
-16z"/>
<path d="M15056 3844 c-4 -15 -2 -32 3 -37 8 -8 11 0 11 26 0 44 -5 47 -14 11z"/>
<path d="M7835 3810 c-16 -7 -17 -9 -3 -9 9 -1 20 4 23 9 7 11 7 11 -20 0z"/>
<path d="M12838 3813 c7 -3 16 -2 19 1 4 3 -2 6 -13 5 -11 0 -14 -3 -6 -6z"/>
<path d="M15401 3717 c-1 -67 2 -88 12 -84 13 4 11 97 -3 145 -6 19 -9 0 -9
-61z"/>
<path d="M12340 3751 c0 -14 5 -19 15 -14 17 6 15 25 -3 31 -7 2 -12 -5 -12
-17z"/>
<path d="M4840 3734 c0 -8 5 -12 10 -9 6 4 8 11 5 16 -9 14 -15 11 -15 -7z"/>
<path d="M16996 3741 c-4 -7 -5 -15 -2 -18 9 -9 19 4 14 18 -4 11 -6 11 -12 0z"/>
<path d="M9383 3680 c0 -36 2 -50 4 -32 2 17 2 47 0 65 -2 17 -4 3 -4 -33z"/>
<path d="M15303 3675 c0 -27 2 -38 4 -22 2 15 2 37 0 50 -2 12 -4 0 -4 -28z"/>
<path d="M2143 3665 c0 -22 2 -30 4 -17 2 12 2 30 0 40 -3 9 -5 -1 -4 -23z"/>
<path d="M12262 3660 c0 -14 2 -19 5 -12 2 6 2 18 0 25 -3 6 -5 1 -5 -13z"/>
<path d="M16350 3649 c0 -11 4 -18 10 -14 5 3 7 12 3 20 -7 21 -13 19 -13 -6z"/>
<path d="M18167 3654 c-8 -8 1 -24 14 -24 5 0 9 7 9 15 0 15 -12 20 -23 9z"/>
<path d="M18731 3651 c-9 -6 -10 -11 -2 -15 13 -8 31 1 31 15 0 11 -11 11 -29
0z"/>
<path d="M19705 3650 c-3 -5 -1 -10 4 -10 6 0 11 5 11 10 0 6 -2 10 -4 10 -3
0 -8 -4 -11 -10z"/>
<path d="M5765 3571 c-94 -14 9 -19 272 -13 188 5 255 9 208 13 -89 8 -427 8
-480 0z"/>
<path d="M6531 3571 c-9 -6 7 -10 48 -13 68 -3 84 -1 75 13 -7 12 -105 12
-123 0z"/>
<path d="M17245 3570 c-3 -5 -1 -10 4 -10 6 0 11 5 11 10 0 6 -2 10 -4 10 -3
0 -8 -4 -11 -10z"/>
<path d="M20795 3569 c-17 -4 78 -6 210 -6 132 0 229 1 215 3 -52 7 -397 9
-425 3z"/>
<path d="M1198 3563 c7 -3 16 -2 19 1 4 3 -2 6 -13 5 -11 0 -14 -3 -6 -6z"/>
<path d="M1590 3564 c34 -7 110 -9 110 -2 0 5 -28 7 -62 7 -35 -1 -56 -3 -48
-5z"/>
<path d="M4161 3566 c9 -10 196 -15 224 -7 22 7 -4 10 -99 10 -71 1 -127 -1
-125 -3z"/>
<path d="M5150 3561 c30 -3 91 -3 135 0 66 5 57 6 -55 6 -84 0 -114 -2 -80 -6z"/>
<path d="M7223 3563 c42 -2 112 -2 155 0 42 1 7 3 -78 3 -85 0 -120 -2 -77 -3z"/>
<path d="M8038 3563 c6 -2 18 -2 25 0 6 3 1 5 -13 5 -14 0 -19 -2 -12 -5z"/>
<path d="M8248 3563 c12 -2 32 -2 45 0 12 2 2 4 -23 4 -25 0 -35 -2 -22 -4z"/>
<path d="M8778 3563 c17 -2 47 -2 65 0 17 2 3 4 -33 4 -36 0 -50 -2 -32 -4z"/>
<path d="M10348 3563 c7 -3 16 -2 19 1 4 3 -2 6 -13 5 -11 0 -14 -3 -6 -6z"/>
<path d="M12118 3563 c12 -2 30 -2 40 0 9 3 -1 5 -23 4 -22 0 -30 -2 -17 -4z"/>
<path d="M12358 3563 c17 -2 47 -2 65 0 17 2 3 4 -33 4 -36 0 -50 -2 -32 -4z"/>
<path d="M13038 3563 c6 -2 18 -2 25 0 6 3 1 5 -13 5 -14 0 -19 -2 -12 -5z"/>
<path d="M14273 3563 c9 -2 23 -2 30 0 6 3 -1 5 -18 5 -16 0 -22 -2 -12 -5z"/>
<path d="M16550 3561 c0 -12 192 -13 210 -1 10 7 -20 10 -97 10 -62 0 -113 -4
-113 -9z"/>
<path d="M17718 3563 c7 -3 16 -2 19 1 4 3 -2 6 -13 5 -11 0 -14 -3 -6 -6z"/>
<path d="M18301 3566 c9 -9 205 -14 224 -6 12 5 -27 9 -104 9 -68 1 -122 -1
-120 -3z"/>
<path d="M19275 3560 c65 -6 154 -3 164 6 2 2 -49 3 -115 2 -109 -1 -113 -2
-49 -8z"/>
<path d="M20498 3563 c7 -3 16 -2 19 1 4 3 -2 6 -13 5 -11 0 -14 -3 -6 -6z"/>
<path d="M4169 2806 c-2 -2 -2 -44 1 -93 4 -69 8 -88 20 -88 12 0 16 -25 23
-135 9 -162 10 -165 36 -148 29 18 49 -4 50 -55 1 -23 3 -55 5 -72 2 -16 4
-49 5 -72 0 -24 6 -43 12 -43 6 0 10 10 9 23 -3 35 -1 47 10 47 6 0 10 -15 10
-34 0 -35 21 -63 40 -51 14 9 18 -8 24 -104 3 -45 7 -85 10 -88 2 -2 14 1 26
7 31 17 51 -4 48 -49 -3 -33 0 -36 25 -39 26 -3 32 -15 28 -51 -5 -31 7 -41
35 -29 23 11 28 10 41 -7 9 -13 13 -37 11 -65 -3 -41 -1 -45 22 -49 45 -6 49
-41 4 -41 -13 0 -24 -4 -24 -10 0 -5 11 -10 24 -10 14 0 27 -4 30 -8 3 -5 18
-7 34 -4 18 2 33 -2 41 -12 8 -9 22 -16 33 -16 11 0 16 -5 13 -11 -4 -6 -13
-8 -21 -5 -13 5 -16 2 -18 -26 -1 -7 12 -14 29 -15 16 -1 31 -6 33 -12 2 -5
11 -7 21 -4 11 3 31 -2 47 -10 l28 -15 -30 -6 c-16 -3 -38 -5 -48 -3 -10 1
-21 -3 -23 -9 -2 -7 23 -14 64 -20 l68 -9 5 -54 5 -55 60 -4 c70 -4 100 -23
66 -42 -12 -6 -30 -10 -40 -8 -10 2 -19 -1 -20 -7 -1 -5 45 -17 103 -25 58 -9
109 -19 113 -23 12 -12 -19 -27 -57 -27 -75 -1 -60 -17 22 -24 45 -4 87 -11
92 -16 6 -6 23 -10 39 -10 41 0 33 -35 -8 -36 -47 -1 -55 -3 -55 -14 0 -5 20
-10 45 -10 46 0 145 -18 145 -27 0 -2 -7 -11 -16 -20 -8 -9 -14 -25 -12 -36 3
-23 31 -34 93 -36 22 -1 51 -8 65 -16 l25 -14 -32 -11 c-63 -22 -50 -27 120
-46 31 -3 60 -10 63 -15 2 -5 18 -6 34 -2 18 3 30 1 30 -5 0 -14 -24 -22 -48
-15 -11 2 -23 0 -26 -6 -4 -6 -17 -11 -28 -11 -53 0 0 -11 123 -25 166 -19
188 -23 169 -35 -8 -5 -39 -12 -68 -16 -87 -11 -40 -24 88 -24 133 -1 157 -10
140 -54 -19 -51 -15 -54 68 -60 186 -15 306 -27 316 -34 16 -9 -37 -19 -119
-22 -153 -5 -121 -16 65 -23 188 -8 366 -23 384 -34 19 -12 -28 -24 -119 -30
-52 -3 -93 -8 -91 -10 2 -2 147 -11 322 -19 176 -8 330 -17 343 -20 48 -11 3
-25 -95 -32 -84 -5 -93 -7 -59 -13 22 -4 99 -8 172 -8 154 -1 384 -19 397 -31
5 -5 -9 -12 -30 -15 -79 -14 -80 -14 -50 -44 l26 -26 865 0 c659 0 867 3 876
12 16 16 -9 26 -124 49 -59 13 -81 21 -68 26 25 9 488 28 710 29 261 1 308 13
82 22 -102 3 -189 11 -194 16 -16 16 36 19 423 31 201 6 403 15 450 19 l85 8
-95 2 c-52 1 -117 4 -144 6 -49 5 -76 18 -59 28 17 10 249 26 486 33 131 3
237 8 235 9 -2 2 -85 9 -185 16 -101 7 -183 16 -183 20 0 8 23 10 340 28 113
7 218 16 235 20 l29 7 -44 25 c-24 13 -45 29 -47 35 -6 19 113 34 275 34 83 0
153 4 156 9 4 5 -32 12 -79 16 -47 4 -87 11 -90 15 -8 13 38 20 178 30 244 17
294 23 267 31 -14 4 -43 8 -65 8 -51 2 -72 13 -53 29 11 8 301 32 396 32 6 0
12 4 12 8 0 4 -26 9 -57 10 -32 1 -71 5 -88 10 l-30 9 25 14 c15 8 81 18 160
24 l135 10 -3 38 c-5 64 3 67 164 67 142 0 198 13 107 25 -75 10 -94 15 -88
24 7 12 108 28 222 37 51 3 91 10 88 14 -2 4 -36 10 -75 14 -71 7 -89 19 -46
30 13 3 102 12 196 20 95 8 174 17 176 19 5 5 -125 19 -168 18 -17 0 -28 5
-28 13 0 15 62 26 144 26 28 0 68 3 88 6 l37 6 -6 44 c-7 54 -10 53 150 68
119 12 121 13 66 20 -60 8 -88 20 -76 32 11 11 101 22 183 23 84 1 136 10 128
22 -3 5 -17 9 -32 9 -15 0 -45 5 -67 11 l-40 12 37 13 c20 7 76 15 125 17 48
3 99 9 112 14 21 8 17 11 -35 23 -36 8 -51 15 -39 18 11 2 25 8 30 12 6 4 38
11 73 15 l64 7 -4 47 -3 46 65 11 c36 7 94 12 129 13 80 1 74 10 -14 21 -122
15 -101 32 62 49 64 6 119 14 121 16 11 11 -13 25 -43 25 -40 0 -56 17 -23 24
68 15 202 37 216 35 31 -3 43 1 37 11 -4 6 -23 10 -43 10 -20 -1 -53 3 -72 8
l-35 9 28 12 c16 6 45 11 65 11 48 1 113 16 121 29 4 6 12 7 21 1 31 -20 40
-11 40 39 0 46 1 49 31 55 17 3 52 6 76 6 31 0 43 4 40 13 -2 6 -13 11 -23 9
-11 -1 -37 4 -59 12 -39 14 -40 14 -15 24 14 5 58 12 99 16 40 4 83 11 95 16
18 7 16 9 -21 19 -81 22 -66 29 129 57 21 3 41 11 44 16 5 7 -2 9 -19 4 -20
-5 -29 -2 -37 15 -7 11 -9 23 -7 26 8 8 79 25 112 26 29 2 29 3 26 46 -3 53 6
60 79 62 30 0 64 4 75 9 l20 9 -20 1 c-11 1 -33 3 -50 3 -23 2 -30 7 -30 22 0
17 12 21 108 34 59 8 107 19 107 24 0 5 -11 7 -25 5 -14 -3 -33 1 -42 8 -10 7
-27 14 -38 14 -36 2 46 28 108 35 54 6 57 8 51 30 -3 13 0 34 8 47 7 12 13 36
13 53 0 20 5 30 15 30 8 0 16 5 18 10 2 10 -2352 20 -2395 10 -21 -5 -22 -6
-7 -47 14 -39 13 -44 -3 -56 -10 -7 -27 -12 -38 -11 -31 3 -95 -12 -90 -21 3
-5 14 -6 25 -3 15 4 20 0 20 -15 0 -28 -13 -34 -84 -38 -76 -4 -106 -11 -106
-25 0 -6 8 -8 19 -4 23 7 37 -23 19 -41 -7 -7 -47 -16 -88 -20 -77 -6 -119
-23 -64 -25 16 -1 34 -2 39 -4 6 -1 20 -3 33 -3 12 -1 22 -8 22 -16 0 -17 -30
-26 -95 -26 -27 -1 -67 -7 -87 -14 -26 -9 -40 -10 -47 -3 -17 17 -30 -4 -24
-37 l6 -29 16 22 c21 28 51 19 51 -15 0 -17 -8 -27 -25 -34 -14 -5 -29 -9 -33
-8 -4 1 -44 -2 -89 -7 -82 -7 -106 -25 -35 -25 20 0 44 -5 52 -10 24 -16 -2
-27 -81 -34 -38 -4 -71 -11 -74 -17 -4 -5 -17 -6 -30 -3 -13 3 -30 2 -37 -3
-9 -5 0 -10 27 -13 31 -4 41 -10 43 -26 3 -20 -3 -21 -106 -28 -60 -4 -122
-11 -138 -16 -28 -8 -27 -8 12 -9 91 -2 73 -60 -19 -62 -81 -1 -153 -13 -147
-24 3 -5 17 -10 32 -10 24 -1 57 -27 58 -46 0 -14 -31 -31 -48 -27 -29 8 -188
-16 -182 -27 3 -5 16 -9 29 -7 14 2 35 1 48 -3 20 -5 22 -8 13 -26 -9 -15 -21
-19 -53 -19 -23 1 -85 -4 -137 -11 l-95 -13 68 -9 c63 -9 80 -18 57 -32 -10
-6 -112 -20 -233 -31 -85 -9 -69 -24 25 -24 64 0 91 -11 72 -30 -5 -5 -65 -11
-134 -15 -169 -8 -190 -12 -190 -35 0 -13 6 -18 19 -15 21 4 48 -42 33 -57 -5
-5 -53 -12 -106 -15 -53 -3 -99 -9 -101 -13 -3 -4 29 -11 70 -15 41 -4 75 -11
75 -15 0 -12 -67 -30 -112 -30 -21 0 -83 -5 -140 -12 -111 -12 -111 -26 0 -27
48 -1 62 -4 62 -16 0 -8 -10 -17 -22 -20 -21 -4 -295 -25 -333 -25 -9 0 -13
-4 -10 -10 3 -5 23 -10 43 -10 43 0 72 -15 57 -28 -6 -5 -71 -15 -145 -21 -74
-7 -139 -16 -143 -21 -14 -12 11 -50 28 -44 18 7 45 -13 45 -32 0 -10 -11 -14
-37 -13 -44 1 -306 -20 -311 -26 -2 -2 33 -7 77 -11 45 -3 84 -10 86 -14 8
-13 -80 -28 -240 -41 -148 -12 -169 -26 -42 -28 42 -1 57 -5 57 -15 0 -8 -8
-17 -18 -20 -20 -7 -288 -25 -364 -26 -90 0 -48 -17 59 -23 58 -4 109 -9 112
-12 18 -19 -36 -28 -201 -35 -199 -9 -268 -17 -268 -32 0 -6 9 -21 20 -36 11
-14 17 -29 13 -33 -6 -6 -237 -23 -403 -30 l-25 -1 25 -8 c14 -4 56 -8 95 -9
68 -1 69 -1 50 -20 -16 -14 -48 -21 -155 -30 -74 -6 -156 -11 -182 -11 -27 0
-48 -4 -48 -10 0 -5 8 -10 18 -10 10 0 27 -6 37 -14 17 -12 16 -14 -16 -24
-19 -6 -173 -16 -344 -22 -350 -13 -400 -16 -268 -19 93 -1 193 -17 193 -30 0
-25 -168 -31 -853 -31 -591 0 -725 3 -790 15 -43 8 -95 15 -115 16 -56 1 -28
8 98 23 63 8 97 14 75 15 -169 5 -477 24 -508 32 -32 8 -36 13 -27 25 7 8 30
14 51 14 22 0 39 4 39 9 0 4 -46 11 -102 15 -177 12 -223 19 -223 36 0 11 17
17 68 22 38 3 71 9 74 11 4 5 -127 18 -211 21 -28 1 -61 8 -73 16 l-21 14 24
32 25 32 -51 11 c-28 6 -72 11 -98 11 -28 0 -57 7 -71 17 -23 16 -23 17 -5 24
10 4 48 8 84 8 79 1 69 17 -15 24 -33 3 -71 8 -85 12 -14 4 -42 6 -62 5 -28 0
-38 3 -38 14 0 21 12 26 69 27 64 2 66 16 4 24 -27 3 -55 7 -63 9 -11 1 -14
12 -13 39 2 35 1 37 -26 37 -35 0 -52 19 -44 48 7 29 -5 75 -18 67 -5 -4 -9
-28 -7 -53 3 -41 1 -47 -17 -47 -17 0 -20 7 -20 45 0 55 -9 70 -40 70 -30 0
-40 27 -14 40 10 6 24 8 29 5 6 -3 10 -1 10 4 0 6 -10 11 -23 11 -13 0 -27 3
-31 8 -4 4 -22 7 -39 7 -30 0 -32 2 -35 40 -7 120 -7 120 -27 120 -16 0 -21
13 -32 90 -15 106 -21 125 -22 71 -1 -25 -5 -36 -10 -30 -21 22 -33 280 -29
669 l3 400 -601 3 c-330 1 -602 0 -605 -2z m28 -88 c-3 -8 -6 -5 -6 6 -1 11 2
17 5 13 3 -3 4 -12 1 -19z m10950 -279 c9 -9 8 -15 -3 -26 -8 -8 -12 -19 -9
-24 4 -5 2 -9 -3 -9 -5 0 -12 12 -15 27 -8 41 6 56 30 32z m-132 -119 c3 -6
-1 -13 -10 -16 -19 -8 -30 0 -20 15 8 14 22 14 30 1z m-347 -258 c2 -7 -3 -12
-12 -12 -9 0 -16 7 -16 16 0 17 22 14 28 -4z m-8 -32 c0 -5 -4 -10 -10 -10 -5
0 -10 5 -10 10 0 6 5 10 10 10 6 0 10 -4 10 -10z m-10172 -82 c-7 -19 -38 -22
-38 -4 0 10 9 16 21 16 12 0 19 -5 17 -12z m6962 -313 c0 -8 -4 -15 -10 -15
-5 0 -10 7 -10 15 0 8 5 15 10 15 6 0 10 -7 10 -15z m1060 -655 c0 -5 -2 -10
-4 -10 -3 0 -8 5 -11 10 -3 6 -1 10 4 10 6 0 11 -4 11 -10z"/>
<path d="M15628 2763 c5 -59 10 -63 11 -10 1 26 -3 47 -7 47 -4 0 -6 -17 -4
-37z"/>
<path d="M15555 2749 c-4 -12 -2 -26 4 -32 8 -8 11 -2 11 21 0 37 -6 41 -15
11z"/>
<path d="M4560 1673 c0 -10 5 -25 10 -33 7 -11 10 -7 10 18 0 17 -4 32 -10 32
-5 0 -10 -8 -10 -17z"/>
<path d="M5530 1508 c0 -12 4 -30 10 -38 8 -12 10 -12 15 2 9 23 3 50 -12 56
-8 2 -13 -5 -13 -20z"/>
</g>
</svg>
